
<svg width="512px" height="196px" viewBox="0 0 512 196" version="1.1" xmlns="http://www.w3.org/2000/svg" xmlns:xlink="http://www.w3.org/1999/xlink">
	<!-- Generator: Sketch 48.2 (47327) - http://www.bohemiancoding.com/sketch -->
	<desc>Created with Sketch.</desc>
	<defs></defs>
	<g id="Page-1" stroke="none" stroke-width="1" fill="none" fill-rule="evenodd">
		<g id="better" transform="translate(-1.000000, 0.000000)" fill-rule="nonzero">
			<path d="M490.798,86.027 C474.171,75.786 420.54,62.692 345.278,62.692 L305.522,16.312 C297.137,6.53 284.895,0.899 272.011,0.899 L86.247,0.899 C76.882,0.899 67.9,4.62 61.278,11.243 L16.748,55.778 C12.224,60.302 9.014,65.972 7.461,72.178 L1.004,98.002 L133.419,159.794 L504.174,159.794 L504.174,109.891 C504.173,100.131 499.107,91.146 490.798,86.027 Z" id="Shape" fill="#87D7FF"></path>
			<path d="M305.522,16.311 C297.137,6.529 284.895,0.898 272.011,0.898 L86.247,0.898 C76.882,0.898 67.9,4.619 61.278,11.242 L18.66,53.863 L41.743,53.863 C49.885,53.863 58.021,54.313 66.113,55.213 L133.412,62.691 L345.277,62.691 L305.522,16.311 Z" id="Shape" fill="#64BEF0"></path>
			<path d="M291.716,62.69 L145.147,62.69 C137.33,62.69 129.52,62.257 121.751,61.395 L75.805,56.289 C66.33,55.236 61.737,44.149 67.693,36.704 L83.975,16.351 C87.325,12.163 92.398,9.725 97.761,9.725 L248.73,9.725 C253.969,9.725 258.938,12.052 262.292,16.076 L295.107,55.45 C297.503,58.326 295.458,62.69 291.716,62.69 Z" id="Shape" fill="#625D6B"></path>
			<path d="M504.173,115.655 C504.173,98 477.691,80.345 354.106,80.345 L9.831,80.345 C4.956,80.345 1.004,84.297 1.004,89.172 L1,133.31 L168.728,150.965 L504.173,150.965 L504.173,115.655 Z" id="Shape" fill="#64BEF0"></path>
			<path d="M504.173,142.138 L90.244,142.138 L11.744,124.695 C7.029,123.66 2.27,126.63 1.209,131.397 C0.157,136.156 3.158,140.871 7.916,141.927 L87.363,159.582 C87.992,159.724 88.63,159.793 89.276,159.793 L504.17,159.793 C509.049,159.793 512.998,155.84 512.998,150.966 C512.998,146.092 509.052,142.138 504.173,142.138 Z" id="Shape" fill="#00AADC"></path>
			<circle id="Oval" fill="#EDEDEE" cx="76.034" cy="146.549" r="40.46"></circle>
			<path d="M76.034,195.103 C49.261,195.103 27.483,173.324 27.483,146.552 C27.483,119.779 49.262,98.001 76.034,98.001 C102.806,98.001 124.585,119.78 124.585,146.552 C124.585,173.324 102.807,195.103 76.034,195.103 Z M76.034,115.655 C58.995,115.655 45.138,129.512 45.138,146.551 C45.138,163.59 58.995,177.447 76.034,177.447 C93.073,177.447 106.93,163.59 106.93,146.551 C106.93,129.512 93.073,115.655 76.034,115.655 Z" id="Shape" fill="#504B5A"></path>
			<circle id="Oval" fill="#DCDBDE" cx="76.034" cy="146.549" r="17.655"></circle>
			<g id="Group" transform="translate(133.000000, 106.000000)" fill="#00AADC">
				<path d="M221.1,18.483 L9.24,18.483 C4.365,18.483 0.413,14.531 0.413,9.656 C0.413,4.781 4.366,0.829 9.24,0.829 L221.1,0.829 C225.975,0.829 229.927,4.782 229.927,9.656 C229.927,14.531 225.975,18.483 221.1,18.483 Z" id="Shape"></path>
				<path d="M371.173,18.483 L362.346,18.483 C357.471,18.483 353.518,14.531 353.518,9.656 C353.518,4.781 357.471,0.829 362.346,0.829 L371.173,0.829 C376.048,0.829 380,4.782 380,9.656 C380,14.531 376.048,18.483 371.173,18.483 Z" id="Shape"></path>
			</g>
			<rect id="Rectangle-path" fill="#504B5A" x="195.205" y="9.723" width="17.655" height="52.965"></rect>
			<path d="M494.697,89.173 L486.516,89.173 C481.641,89.173 477.689,93.126 477.689,98 C477.689,102.875 481.642,106.827 486.516,106.827 L503.777,106.827 C503.011,99.962 499.814,93.751 494.697,89.173 Z" id="Shape" fill="#EDEDEE"></path>
			<path d="M305.522,16.311 C303.407,13.843 301.042,11.642 298.486,9.726 L284.08,9.726 C280.338,9.726 278.294,14.09 280.689,16.966 L313.502,56.34 C316.856,60.365 321.825,62.692 327.064,62.692 L345.277,62.692 L305.522,16.311 Z" id="Shape" fill="#625D6B"></path>
			<polygon id="Shape" fill="#504B5A" points="116.388 60.799 133.413 9.725 115.758 9.725 91.598 58.045"></polygon>
			<path d="M7.461,72.176 L5.417,80.345 L27.482,80.345 C32.357,80.345 36.309,76.392 36.309,71.518 C36.309,66.644 32.356,62.691 27.482,62.691 L11.421,62.691 C9.665,65.639 8.302,68.818 7.461,72.176 Z" id="Shape" fill="#FF6464"></path>
			<circle id="Oval" fill="#EDEDEE" cx="420.306" cy="146.549" r="40.46"></circle>
			<path d="M420.306,195.103 C393.533,195.103 371.755,173.324 371.755,146.552 C371.755,119.779 393.534,98.001 420.306,98.001 C447.078,98.001 468.857,119.78 468.857,146.552 C468.857,173.324 447.079,195.103 420.306,195.103 Z M420.306,115.655 C403.267,115.655 389.41,129.512 389.41,146.551 C389.41,163.59 403.267,177.447 420.306,177.447 C437.345,177.447 451.202,163.59 451.202,146.551 C451.202,129.512 437.345,115.655 420.306,115.655 Z" id="Shape" fill="#504B5A"></path>
			<circle id="Oval" fill="#DCDBDE" cx="420.306" cy="146.549" r="17.655"></circle>
		</g>
	</g>
</svg>