<svg width="512px" height="196px" viewBox="0 0 512 196" version="1.1" xmlns="http://www.w3.org/2000/svg" xmlns:xlink="http://www.w3.org/1999/xlink">
	<!-- Generator: Sketch 48.2 (47327) - http://www.bohemiancoding.com/sketch -->
	<desc>Created with Sketch.</desc>
	<defs></defs>
	<g id="Page-1" stroke="none" stroke-width="1" fill="none" fill-rule="evenodd">
		<g id="best" fill-rule="nonzero">
			<g id="Group" transform="translate(10.000000, 4.000000)" fill="#C7CFE2">
				<rect id="Rectangle-path" transform="translate(25.305739, 27.795505) rotate(-128.658913) translate(-25.305739, -27.795505) " x="-2.96053718" y="18.9617629" width="56.5325518" height="17.667485"></rect>
				<path d="M196.531,51.423 C190.724,50.687 187.586,44.227 190.598,39.209 L197.453,27.784 C202.223,19.834 210.701,14.57 219.973,14.551 C220.025,14.551 220.077,14.551 220.129,14.551 L263.654,14.551 C271.996,14.551 279.85,18.478 284.855,25.152 L315.899,66.55 L196.531,51.423 Z" id="Shape"></path>
				<path d="M314.046,8.667 C313.297,8.056 312.469,7.44 311.563,6.828 L272.503,6.828 L334.276,76.345 L369.586,58.69 C369.585,58.689 328.339,20.327 314.046,8.667 Z" id="Shape"></path>
			</g>
			<path d="M414.896,53.862 L378.777,53.862 C373.547,53.862 368.434,55.41 364.082,58.311 L351.584,66.644 C350.094,67.637 348.497,68.411 346.856,69.078 L314.049,25.325 C311.956,22.533 313.947,18.551 317.437,18.551 L330.979,18.551 C328.31,16.23 325.933,14.206 324.045,12.666 C317.057,6.964 303.815,0.896 273.677,0.896 L230.128,0.896 C210.93,0.896 191.997,5.366 174.827,13.952 L112.669,45.034 L35.31,45.034 C20.684,45.034 8.827,56.891 8.827,71.517 L8.827,150.965 L70.62,168.62 L503.171,168.62 L503.171,142.137 C503.171,93.385 463.649,53.862 414.896,53.862 Z M206.531,55.423 C200.724,54.687 197.586,48.227 200.598,43.209 L207.453,31.784 C212.223,23.834 220.701,18.57 229.973,18.551 C230.025,18.551 230.077,18.551 230.129,18.551 L273.654,18.551 C281.996,18.551 289.85,22.478 294.855,29.152 L325.899,70.55 L206.531,55.423 Z" id="Shape" fill="#FF6464"></path>
			<path d="M503.171,177.448 L105.931,177.448 C101.052,177.448 97.103,173.5 97.103,168.62 C97.103,163.74 101.051,159.792 105.931,159.792 L503.172,159.792 C508.051,159.792 512,163.74 512,168.62 C512,173.5 508.051,177.448 503.171,177.448 Z" id="Shape" fill="#D2555A"></path>
			<circle id="Oval" fill="#D7DEED" cx="414.895" cy="142.137" r="44.138"></circle>
			<path d="M414.896,195.103 C385.689,195.103 361.931,171.345 361.931,142.138 C361.931,112.931 385.689,89.173 414.896,89.173 C444.103,89.173 467.861,112.931 467.861,142.138 C467.861,171.344 444.103,195.103 414.896,195.103 Z M414.896,106.827 C395.422,106.827 379.586,122.664 379.586,142.137 C379.586,161.61 395.423,177.447 414.896,177.447 C434.37,177.447 450.206,161.61 450.206,142.137 C450.206,122.664 434.369,106.827 414.896,106.827 Z" id="Shape" fill="#464655"></path>
			<circle id="Oval" fill="#B8BFD4" cx="414.895" cy="142.137" r="17.655"></circle>
			<g id="Group" transform="translate(0.000000, 97.000000)" fill="#D2555A">
				<path d="M79.457,80.448 C78.75,80.448 78.026,80.362 77.311,80.181 L6.69,62.525 C1.957,61.344 -0.922,56.551 0.268,51.827 C1.441,47.086 6.242,44.189 10.966,45.405 L81.587,63.06 C86.32,64.241 89.199,69.034 88.009,73.758 C87.008,77.776 83.414,80.448 79.457,80.448 Z" id="Shape"></path>
				<path d="M8.828,0.999 L21.312,13.483 C24.623,16.794 26.483,21.284 26.483,25.967 L26.483,62.791 L8.828,53.963 C8.828,53.965 8.828,0.999 8.828,0.999 Z" id="Shape"></path>
				<path d="M294.335,45.137 L141.241,45.137 C136.362,45.137 132.413,41.189 132.413,36.309 C132.413,31.429 136.361,27.481 141.241,27.481 L294.335,27.481 C301.412,27.481 308.067,24.722 313.068,19.723 L326.447,6.344 C329.895,2.896 335.482,2.896 338.93,6.344 C342.378,9.792 342.378,15.379 338.93,18.827 L325.551,32.206 C317.214,40.543 306.129,45.137 294.335,45.137 Z" id="Shape"></path>
			</g>
			<circle id="Oval" fill="#D7DEED" cx="97.102" cy="142.137" r="44.138"></circle>
			<path d="M97.103,195.103 C67.896,195.103 44.138,171.345 44.138,142.138 C44.138,112.931 67.896,89.173 97.103,89.173 C126.31,89.173 150.068,112.931 150.068,142.138 C150.069,171.344 126.31,195.103 97.103,195.103 Z M97.103,106.827 C77.629,106.827 61.793,122.664 61.793,142.137 C61.793,161.61 77.63,177.447 97.103,177.447 C116.576,177.447 132.413,161.61 132.413,142.137 C132.414,122.664 116.577,106.827 97.103,106.827 Z" id="Shape" fill="#464655"></path>
			<circle id="Oval" fill="#B8BFD4" cx="97.102" cy="142.137" r="17.655"></circle>
			<path d="M15.177,54.497 L354.059,88.385 C358.789,88.858 363.585,88.119 367.884,86.09 C388.473,76.371 457.856,51.58 502.597,132.324 C497.709,88.194 460.328,53.861 414.896,53.861 L378.775,53.861 C373.546,53.861 368.433,55.409 364.081,58.31 L351.583,66.643 C350.093,67.636 348.496,68.41 346.855,69.077 C346.855,69.077 343.662,72.893 325.898,70.549 L255.164,61.585 C196.05,54.2 120.84,45.033 112.669,45.033 L35.31,45.033 C27.201,45.034 20.034,48.757 15.177,54.497 Z" id="Shape" fill="#FF8B8B"></path>
			<path d="M44.138,27.379 L21.553,27.379 C13.954,27.379 7.207,22.516 4.804,15.307 L2.173,7.414 C1.104,4.207 3.491,0.896 6.87,0.896 L44.138,0.896 C49.013,0.896 52.966,4.849 52.966,9.724 L52.966,18.552 C52.965,23.428 49.013,27.379 44.138,27.379 Z" id="Shape" fill="#FF6464"></path>
		</g>
	</g>
</svg>