<svg width="512px" height="204px" viewBox="0 0 512 204" version="1.1" xmlns="http://www.w3.org/2000/svg" xmlns:xlink="http://www.w3.org/1999/xlink">
	<!-- Generator: Sketch 48.2 (47327) - http://www.bohemiancoding.com/sketch -->
	<desc>Created with Sketch.</desc>
	<defs></defs>
	<g id="Page-1" stroke="none" stroke-width="1" fill="none" fill-rule="evenodd">
		<g id="basic" transform="translate(-1.000000, 0.000000)" fill-rule="nonzero">
			<path d="M490.798,85.613 C474.171,75.372 420.54,62.278 345.278,62.278 L305.522,15.898 C297.137,6.116 284.895,0.485 272.011,0.485 L153.008,0.485 C140.364,0.485 128.138,5.008 118.538,13.236 L71.624,53.45 L21.585,60.598 C14.479,61.613 8.696,66.829 6.955,73.793 L1.005,97.587 L133.42,159.379 L504.175,159.379 L504.175,109.476 C504.173,99.717 499.107,90.732 490.798,85.613 Z" id="Shape" fill="#FFB47D"></path>
			<path d="M504.173,115.241 C504.173,97.586 477.691,79.931 354.106,79.931 L9.831,79.931 C4.956,79.931 1.004,83.884 1.004,88.758 L1.004,141.723 L168.729,168.205 L504.174,168.205 L504.174,115.241 L504.173,115.241 Z" id="Shape" fill="#FF9164"></path>
			<path d="M504.173,150.551 L90.244,150.551 L11.744,133.108 C7.029,132.073 2.27,135.043 1.209,139.81 C0.157,144.569 3.158,149.284 7.916,150.34 L87.363,167.995 C87.992,168.137 88.63,168.206 89.276,168.206 L504.17,168.206 C509.049,168.206 512.998,164.253 512.998,159.379 C512.999,154.504 509.052,150.551 504.173,150.551 Z" id="Shape" fill="#FF7D5A"></path>
			<circle id="Oval" fill="#EDEDEE" cx="424.72" cy="150.549" r="44.137"></circle>
			<path d="M424.725,203.516 C395.518,203.516 371.76,179.758 371.76,150.551 C371.76,121.344 395.518,97.586 424.725,97.586 C453.932,97.586 477.69,121.344 477.69,150.551 C477.69,179.758 453.932,203.516 424.725,203.516 Z M424.725,115.241 C405.252,115.241 389.415,131.078 389.415,150.551 C389.415,170.024 405.252,185.861 424.725,185.861 C444.198,185.861 460.035,170.025 460.035,150.551 C460.035,131.078 444.199,115.241 424.725,115.241 Z" id="Shape" fill="#504B5A"></path>
			<circle id="Oval" fill="#DCDBDE" cx="424.72" cy="150.549" r="17.655"></circle>
			<circle id="Oval" fill="#EDEDEE" cx="89.275" cy="150.549" r="44.137"></circle>
			<path d="M89.279,203.516 C60.072,203.516 36.314,179.758 36.314,150.551 C36.314,121.344 60.072,97.586 89.279,97.586 C118.486,97.586 142.244,121.344 142.244,150.551 C142.243,179.758 118.485,203.516 89.279,203.516 Z M89.279,115.241 C69.806,115.241 53.969,131.078 53.969,150.551 C53.969,170.024 69.806,185.861 89.279,185.861 C108.752,185.861 124.589,170.025 124.589,150.551 C124.589,131.078 108.752,115.241 89.279,115.241 Z" id="Shape" fill="#504B5A"></path>
			<circle id="Oval" fill="#DCDBDE" cx="89.275" cy="150.549" r="17.655"></circle>
			<g id="Group" transform="translate(159.000000, 115.000000)" fill="#FF7D5A">
				<path d="M195.105,17.896 L9.728,17.896 C4.853,17.896 0.901,13.943 0.901,9.069 C0.901,4.194 4.854,0.242 9.728,0.242 L195.105,0.242 C199.98,0.242 203.932,4.194 203.932,9.069 C203.933,13.945 199.98,17.896 195.105,17.896 Z" id="Shape"></path>
				<path d="M345.173,17.896 L336.346,17.896 C331.471,17.896 327.518,13.943 327.518,9.069 C327.518,4.194 331.471,0.242 336.346,0.242 L345.173,0.242 C350.048,0.242 354,4.194 354,9.069 C354,13.945 350.048,17.896 345.173,17.896 Z" id="Shape"></path>
			</g>
			<path d="M71.624,53.449 L118.538,13.235 C128.138,5.007 140.364,0.484 153.008,0.484 L272.011,0.484 C284.896,0.484 297.136,6.114 305.522,15.897 L345.278,62.277 L136.276,62.277 C128.496,62.277 120.73,61.634 113.055,60.355 L71.624,53.449 Z" id="Shape" fill="#FF9164"></path>
			<path d="M262.294,15.664 C258.94,11.639 253.971,9.312 248.731,9.312 L167.207,9.312 C162.525,9.312 158.034,11.172 154.724,14.483 L128.242,40.965 C125.901,43.306 124.585,46.481 124.585,49.792 C124.585,56.686 130.174,62.276 137.069,62.276 L291.716,62.276 C295.458,62.276 297.502,57.911 295.107,55.036 L262.294,15.664 Z" id="Shape" fill="#625D6B"></path>
			<polygon id="Shape" fill="#504B5A" points="186.381 62.276 159.898 62.276 177.553 9.312 195.208 9.312"></polygon>
			<path d="M494.697,88.759 L486.516,88.759 C481.641,88.759 477.689,92.711 477.689,97.586 C477.689,102.461 481.642,106.413 486.516,106.413 L503.777,106.413 C503.011,99.548 499.814,93.337 494.697,88.759 Z" id="Shape" fill="#EDEDEE"></path>
			<path d="M305.522,15.897 C303.407,13.429 301.042,11.228 298.486,9.312 L284.08,9.312 C280.338,9.312 278.294,13.676 280.689,16.552 L313.502,55.926 C316.856,59.951 321.825,62.278 327.064,62.278 L345.277,62.278 L305.522,15.897 Z" id="Shape" fill="#625D6B"></path>
			<path d="M1.004,88.759 L1.004,97.586 L18.659,97.586 C23.534,97.586 27.486,93.634 27.486,88.759 C27.486,83.884 23.533,79.932 18.659,79.932 L9.831,79.932 C4.955,79.931 1.004,83.884 1.004,88.759 Z" id="Shape" fill="#FF6464"></path>
		</g>
	</g>
</svg>