<?xml version="1.0" encoding="UTF-8"?>
<svg width="234px" height="141px" viewBox="0 0 234 141" version="1.1" xmlns="http://www.w3.org/2000/svg" xmlns:xlink="http://www.w3.org/1999/xlink">
    <!-- Generator: Sketch 48.2 (47327) - http://www.bohemiancoding.com/sketch -->
    <title>aaa</title>
    <desc>Created with Sketch.</desc>
    <defs></defs>
    <g id="Page-1" stroke="none" stroke-width="1" fill="none" fill-rule="evenodd">
        <g id="aaa" fill-rule="nonzero">
            <path d="M232.874098,5.49210081 C226.026017,-6.18649536 189.999833,1.42985698 145.095824,21.9923051 C147.378044,23.7693593 149.664521,25.8004812 151.440369,27.8316032 C185.941763,13.1070338 212.579495,8.538074 218.160936,18.1841289 C224.502645,29.1005221 199.386867,56.2644712 159.050137,83.1743527 L159.556509,83.6810687 C208.77532,51.6955115 240.486702,18.6936836 232.874098,5.49210081 Z M20.2800385,132.426575 C16.4744457,125.571007 24.5934219,112.624911 40.8285376,97.1395579 C39.5590611,96.8840708 38.2924214,96.3773549 37.0229448,95.8692196 C36.7690495,95.8692196 36.7690495,95.6137325 36.7690495,95.6137325 L32.9634567,94.0921653 C13.4291204,112.116776 3.53429537,127.348061 8.10157412,135.472548 C13.6830157,144.864536 37.7832123,141.818563 70.0023852,129.885899 L69.7499083,129.379183 C43.8724445,138.264454 24.8458988,140.041508 20.2800385,132.426575 Z" id="Shape" fill="#1F5796"></path>
            <path d="M2.51768327e-14,53.3734051 C2.51768327e-14,25.6434245 36.5047433,3 81.373149,3 C126.495257,3 163,25.6434245 163,53.3734051 C163,81.3579979 126.495257,104 81.373149,104 C36.5047433,104 0,81.3579979 2.51768327e-14,53.3734051 Z M46.1369158,14.1944061 L61.6013999,66.8578993 L77.8241555,7.32556404 C66.4160689,7.83478861 55.5168036,10.1234544 46.1369158,14.1944061 Z M77.0644668,36.0739937 L68.699387,66.8578993 L85.6832486,66.8578993 L77.0644668,36.0739937 Z M101.146315,66.8578993 L115.849693,13.6866039 C106.217521,9.86884207 95.3168384,7.58017632 83.9087518,7.32556404 L101.146315,66.8578993 Z M45.8832138,66.8578993 L37.518134,36.0739937 L29.1530542,66.8578993 L45.8832138,66.8578993 Z M142.465728,72.964327 C146.523542,67.1125116 148.805443,60.4982818 148.805443,53.3748275 C148.805443,39.8917556 140.440363,27.9335127 126.750376,19.283807 L142.465728,72.964327 Z M125.230999,66.8578993 L116.6108,36.0739937 L108.24572,66.8578993 L125.230999,66.8578993 Z M127.002661,72.964327 L106.469806,72.964327 L104.696726,79.5785567 L109.512812,95.3531392 C117.371906,93.0644734 124.469893,89.5027462 130.300787,85.1771822 L127.002661,72.964327 Z M53.7423069,95.3517168 L47.6577105,72.9629045 L27.3771401,72.9629045 L25.6026434,79.3210996 C32.7006304,86.4473988 42.3342203,92.041757 53.7423069,95.6034842 L53.7423069,95.3517168 Z M87.4577453,72.964327 L66.9234729,72.964327 L60.3328899,97.3857702 C66.9234729,98.9134439 74.0228773,99.6772808 81.373149,99.6772808 C85.9369506,99.6772808 90.2456328,99.4212461 94.5557324,98.6574092 L87.4577453,72.964327 Z M34.7288292,20.3008337 C22.0536498,28.6959271 14.1945568,40.3995578 14.1945568,53.3734051 C14.1945568,60.4982818 16.4764575,66.8564769 20.2791531,72.7082923 L34.7288292,20.3008337 Z" id="Shape" fill="#CC2132"></path>
        </g>
    </g>
</svg>