<?xml version="1.0" encoding="UTF-8"?>
<svg width="445px" height="319px" viewBox="0 0 445 319" version="1.1" xmlns="http://www.w3.org/2000/svg" xmlns:xlink="http://www.w3.org/1999/xlink">
    <!-- Generator: Sketch 48.2 (47327) - http://www.bohemiancoding.com/sketch -->
    <title>allstate-insurance-logo-vector</title>
    <desc>Created with Sketch.</desc>
    <defs></defs>
    <g id="Page-1" stroke="none" stroke-width="1" fill="none" fill-rule="evenodd">
        <g id="allstate-insurance-logo-vector" fill="#0075C9" fill-rule="nonzero">
            <polygon id="Shape" points="53.3678161 299.597087 53.3678161 311 49.3448276 311 49.3448276 299.597087 39 282.84466 43.0229885 282 51.4281609 296.007282 59.6178161 282.281553 64 282.281553"></polygon>
            <g id="Group" transform="translate(63.000000, 291.000000)">
                <path d="M9.64285714,3.22 C6,3.22 4.21428571,6.3 4.21428571,10.43 C4.21428571,14.49 6.14285714,17.57 9.64285714,17.57 C13.3571429,17.57 15.2142857,14.49 15.2142857,10.43 C15.2142857,6.37 13.2857143,3.22 9.64285714,3.22 M9.64285714,20.65 C4.28571429,20.65 0.428571429,16.87 0.428571429,10.43 C0.428571429,3.92 4.35714286,0.07 9.64285714,0.07 C15.0714286,0.07 19,3.85 19,10.43 C19.0714286,16.94 15.0714286,20.65 9.64285714,20.65" id="Shape"></path>
                <path d="M36.5714286,20.3 L36.0714286,17.43 C34.1428571,19.18 31.7857143,20.65 28.9285714,20.65 C25.0714286,20.65 23.0714286,18.41 23.0714286,14.91 L23.0714286,0.56 L26.7857143,0.56 L26.7857143,14 C26.7857143,16.03 27.7142857,17.36 29.8571429,17.36 C31.8571429,17.36 33.8571429,16.03 35.6428571,14.21 L35.6428571,0.56 L39.4285714,0.56 L39.4285714,20.3 L36.5714286,20.3 Z" id="Shape"></path>
            </g>
            <polygon id="Shape" points="108.307692 292 106 291.492754 107.384615 282 112 282"></polygon>
            <g id="Group" transform="translate(115.000000, 281.000000)">
                <path d="M3.76828645,18.5074074 L3.76828645,30.2592593 L0,30.2592593 L0,10.4148148 L2.98618926,10.4148148 L3.62608696,14.4259259 C5.04808184,12.1740741 7.32327366,10.1333333 10.6649616,9.92222222 L11.2337596,13.4407407 C7.96317136,13.6518519 5.11918159,15.9037037 3.76828645,18.5074074" id="Shape"></path>
                <path d="M21.8987212,12.8777778 C19.5524297,12.8777778 17.6327366,14.5666667 17.0639386,17.9444444 L26.7335038,17.9444444 C26.2358056,14.7074074 24.8138107,12.8777778 21.8987212,12.8777778 Z M30.4306905,20.7592593 L16.8506394,20.7592593 C16.9928389,25.3333333 19.1969309,27.5148148 22.7519182,27.5148148 C25.6670077,27.5148148 27.7289003,26.3888889 29.9329923,24.7 L30.5017903,28.0074074 C28.368798,29.6962963 25.8092072,30.6814815 22.4675192,30.6814815 C17.2772379,30.6814815 13.1534527,27.5851852 13.1534527,20.337037 C13.1534527,14.0037037 16.9217391,10.062963 21.969821,10.062963 C27.8,10.062963 30.5017903,14.5666667 30.5017903,20.0555556 L30.5017903,20.7592593 L30.4306905,20.7592593 Z" id="Shape"></path>
                <path d="M43.9396419,10.4148148 L47.7079284,10.4148148 L47.7079284,30.2592593 L43.9396419,30.2592593 L43.9396419,10.4148148 Z M45.859335,6.4037037 C44.5084399,6.4037037 43.4419437,5.34814815 43.4419437,4.08148148 C43.4419437,2.81481481 44.5084399,1.68888889 45.859335,1.68888889 C47.1391304,1.68888889 48.2056266,2.74444444 48.2056266,4.08148148 C48.1345269,5.34814815 47.0680307,6.4037037 45.859335,6.4037037 Z" id="Shape"></path>
                <path d="M65.6250639,30.2592593 L65.6250639,16.7481481 C65.6250639,14.7074074 64.771867,13.3703704 62.5677749,13.3703704 C60.5769821,13.3703704 58.5861893,14.7074074 56.7375959,16.6074074 L56.7375959,30.2592593 L52.9693095,30.2592593 L52.9693095,10.4148148 L55.9554987,10.4148148 L56.3820972,13.2296296 C58.3017903,11.5407407 60.6480818,9.92222222 63.4920716,9.92222222 C67.2603581,9.92222222 69.3222506,12.1740741 69.3222506,15.762963 L69.3222506,30.2592593 L65.6250639,30.2592593 Z" id="Shape"></path>
                <path d="M90.3677749,12.6666667 C87.8792839,12.6666667 86.3150895,14.5666667 86.3150895,16.9592593 C86.3150895,19.2814815 87.8792839,21.0407407 90.3677749,21.0407407 C92.9984655,21.0407407 94.4915601,19.2111111 94.4915601,16.8185185 C94.5626598,14.4962963 92.9273657,12.6666667 90.3677749,12.6666667 Z M84.8930946,32.3703704 C84.8930946,33.9185185 86.9549872,35.1148148 90.8654731,35.1148148 C94.7759591,35.1148148 96.9800512,33.7777778 96.9800512,32.0888889 C96.9800512,30.8925926 96.0557545,30.0481481 93.140665,29.5555556 L90.7232737,29.1333333 C89.6567775,28.9222222 89.0168798,28.7814815 88.2347826,28.6407407 C86.0306905,29.837037 84.8930946,31.0333333 84.8930946,32.3703704 Z M100.677238,10.1333333 L101.246036,13.4407407 L97.4066496,13.7925926 C97.9043478,14.7074074 98.1887468,15.762963 98.1887468,16.8888889 C98.1887468,21.1111111 94.5626598,23.7148148 90.5099744,23.7148148 C90.0122762,23.7148148 89.4434783,23.6444444 88.9457801,23.5740741 C88.3769821,23.9259259 87.9503836,24.4185185 87.9503836,24.7703704 C87.9503836,25.4740741 88.6613811,25.6148148 92.2163683,26.2481481 L93.6383632,26.5296296 C97.9043478,27.3037037 100.535038,28.6407407 100.535038,31.6666667 C100.535038,35.8185185 95.9846547,37.7888889 90.7232737,37.7888889 C85.4618926,37.7888889 81.3381074,36.1703704 81.3381074,32.7222222 C81.3381074,30.6814815 82.7601023,29.1333333 85.6040921,27.5851852 C84.6797954,26.9518519 84.3242967,26.2481481 84.3242967,25.5444444 C84.3242967,24.5592593 85.1063939,23.6444444 86.457289,22.8703704 C84.2531969,21.7444444 82.7601023,19.7037037 82.7601023,16.9592593 C82.7601023,12.6666667 86.3861893,10.062963 90.4388747,10.062963 C92.5007673,10.062963 94.2071611,10.6962963 95.629156,11.7518519 L100.677238,10.1333333 Z" id="Shape"></path>
                <path d="M112.124297,13.0888889 C108.49821,13.0888889 106.720716,16.1851852 106.720716,20.337037 C106.720716,24.4185185 108.569309,27.5148148 112.124297,27.5148148 C115.821483,27.5148148 117.670077,24.4185185 117.670077,20.337037 C117.670077,16.2555556 115.750384,13.0888889 112.124297,13.0888889 M112.124297,30.6111111 C106.791816,30.6111111 102.95243,26.8111111 102.95243,20.337037 C102.95243,13.7925926 106.862916,9.92222222 112.124297,9.92222222 C117.527877,9.92222222 121.438363,13.7222222 121.438363,20.337037 C121.438363,26.8814815 117.456777,30.6111111 112.124297,30.6111111" id="Shape"></path>
                <path d="M133.738619,13.0888889 C130.112532,13.0888889 128.335038,16.1851852 128.335038,20.337037 C128.335038,24.4185185 130.183632,27.5148148 133.738619,27.5148148 C137.435806,27.5148148 139.284399,24.4185185 139.284399,20.337037 C139.284399,16.2555556 137.364706,13.0888889 133.738619,13.0888889 M133.738619,30.6111111 C128.406138,30.6111111 124.566752,26.8111111 124.566752,20.337037 C124.566752,13.7925926 128.406138,9.92222222 133.738619,9.92222222 C139.142199,9.92222222 143.052685,13.7222222 143.052685,20.337037 C143.123785,26.8814815 139.142199,30.6111111 133.738619,30.6111111" id="Shape"></path>
                <path d="M160.329923,14.3555556 C158.765729,13.5814815 157.557033,13.2296296 155.424041,13.2296296 C152.295652,13.2296296 150.02046,15.8333333 150.02046,20.6888889 C150.02046,25.0518519 152.011253,27.3037037 154.713043,27.3037037 C157.059335,27.3037037 158.765729,25.8962963 160.401023,23.8555556 L160.401023,14.3555556 L160.329923,14.3555556 Z M161.11202,30.2592593 L160.614322,27.3740741 C159.050128,29.2037037 157.059335,30.6111111 154.073146,30.6111111 C149.736061,30.6111111 146.181074,27.5148148 146.181074,20.8296296 C146.181074,13.5814815 150.375959,10.1333333 155.281841,10.1333333 C157.272634,10.1333333 159.050128,10.4851852 160.329923,10.9777778 L160.329923,0.703703704 L164.02711,0.140740741 L164.02711,30.2592593 L161.11202,30.2592593 Z" id="Shape"></path>
                <path d="M190.973913,30.2592593 L190.973913,16.7481481 C190.973913,14.7074074 190.120716,13.3703704 187.916624,13.3703704 C185.996931,13.3703704 183.935038,14.7074074 182.086445,16.6074074 L182.086445,30.2592593 L178.389258,30.2592593 L178.389258,0.774074074 L182.086445,0.211111111 L182.086445,13.0185185 C183.721739,11.6111111 186.068031,9.99259259 188.91202,9.99259259 C192.680307,9.99259259 194.6711,12.2444444 194.6711,15.8333333 L194.6711,30.2592593 L190.973913,30.2592593 Z" id="Shape"></path>
                <path d="M211.30844,20.1962963 C203.914066,20.9 202.349872,22.8703704 202.349872,24.9111111 C202.349872,26.5296296 203.416368,27.5851852 205.336061,27.5851852 C207.540153,27.5851852 209.602046,26.4592593 211.30844,24.8407407 L211.30844,20.1962963 Z M212.019437,30.2592593 L211.592839,27.5851852 C210.028645,29.2037037 207.824552,30.6814815 204.482864,30.6814815 C200.856777,30.6814815 198.581586,28.5703704 198.581586,25.1925926 C198.581586,20.2666667 202.84757,18.2962963 211.23734,17.3814815 L211.23734,16.6074074 C211.23734,14.0740741 209.673146,13.2296296 207.397954,13.2296296 C204.980563,13.2296296 202.634271,14.0037037 200.430179,14.9888889 L199.932481,11.8222222 C202.349872,10.837037 204.553964,10.1333333 207.682353,10.1333333 C212.517136,10.1333333 214.863427,12.1037037 214.863427,16.4666667 L214.863427,30.2592593 L212.019437,30.2592593 Z" id="Shape"></path>
                <path d="M232.780563,30.2592593 L232.780563,16.7481481 C232.780563,14.7074074 231.927366,13.3703704 229.723274,13.3703704 C227.732481,13.3703704 225.741688,14.7074074 223.893095,16.6074074 L223.893095,30.2592593 L220.195908,30.2592593 L220.195908,10.4148148 L223.182097,10.4148148 L223.608696,13.2296296 C225.528389,11.5407407 227.87468,9.92222222 230.71867,9.92222222 C234.486957,9.92222222 236.477749,12.1740741 236.477749,15.762963 L236.477749,30.2592593 L232.780563,30.2592593 Z" id="Shape"></path>
                <path d="M254.821483,14.3555556 C253.257289,13.5814815 252.048593,13.2296296 249.915601,13.2296296 C246.716113,13.2296296 244.51202,15.8333333 244.51202,20.6888889 C244.51202,25.0518519 246.502813,27.3037037 249.204604,27.3037037 C251.479795,27.3037037 253.257289,25.8962963 254.892583,23.8555556 L254.892583,14.3555556 L254.821483,14.3555556 Z M255.603581,30.2592593 L255.105882,27.3740741 C253.612788,29.2037037 251.550895,30.6111111 248.635806,30.6111111 C244.298721,30.6111111 240.743734,27.5148148 240.743734,20.8296296 C240.743734,13.5814815 244.938619,10.1333333 249.844501,10.1333333 C251.835294,10.1333333 253.612788,10.4851852 254.892583,10.9777778 L254.892583,0.703703704 L258.66087,0.140740741 L258.66087,30.2592593 L255.603581,30.2592593 Z" id="Shape"></path>
                <path d="M269.965729,30.6111111 C267.335038,30.6111111 264.348849,29.6962963 262.642455,28.7814815 L263.140153,25.262963 C265.059847,26.5296296 267.477238,27.5148148 270.179028,27.5148148 C272.738619,27.5148148 274.231714,26.5296296 274.231714,24.9111111 C274.231714,23.0814815 273.094118,22.3777778 269.468031,21.5333333 C264.775448,20.4074074 262.855754,18.9296296 262.855754,15.4111111 C262.855754,12.2444444 265.557545,9.92222222 269.894629,9.92222222 C272.38312,9.92222222 274.587212,10.4148148 276.506905,11.2592593 L275.867008,14.7074074 C274.089514,13.7222222 271.885422,13.0185185 269.823529,13.0185185 C267.548338,13.0185185 266.410742,13.9333333 266.410742,15.3407407 C266.410742,16.6777778 267.406138,17.3814815 270.534527,18.2259259 C275.511509,19.4925926 277.715601,20.9 277.715601,24.7 C277.857801,28.2888889 275.08491,30.6111111 269.965729,30.6111111" id="Shape"></path>
            </g>
            <rect id="Rectangle-path" x="397" y="306" width="4" height="5"></rect>
            <g id="Group" transform="translate(0.000000, 172.000000)">
                <path d="M437.4528,79.5 L436.3848,79.5 L436.3848,81.9285714 L437.3816,81.9285714 C438.3072,81.9285714 438.8768,81.5714286 438.8768,80.7142857 C438.8768,79.9285714 438.3784,79.5 437.4528,79.5 Z M439.5888,86.5714286 L437.168,83.0714286 L436.3848,83.0714286 L436.3848,86.4285714 L434.9608,86.4285714 L434.9608,78.2857143 L437.4528,78.2857143 C439.1616,78.2857143 440.3008,79.1428571 440.3008,80.6428571 C440.3008,81.7857143 439.66,82.5714286 438.6632,82.9285714 L441.0128,86.2857143 L439.5888,86.5714286 Z M437.4528,76.0714286 C434.0352,76.0714286 431.3296,78.4285714 431.3296,82.6428571 C431.3296,86.7857143 434.0352,89.1428571 437.4528,89.1428571 C440.9416,89.1428571 443.6472,86.7857143 443.6472,82.6428571 C443.6472,78.4285714 440.8704,76.0714286 437.4528,76.0714286 Z M437.4528,90 C433.1808,90 430.2616,87.0714286 430.2616,82.6428571 C430.2616,78.2142857 433.252,75.2142857 437.4528,75.2142857 C441.7248,75.2142857 444.644,78.2142857 444.644,82.6428571 C444.644,87 441.6536,90 437.4528,90 Z" id="Shape"></path>
                <path d="M65.504,51.0714286 L43.6456,51.0714286 C44.9984,48.8571429 65.5752,15.4285714 65.5752,15.4285714 L65.5752,51.0714286 L65.504,51.0714286 Z M56.1768,0.428571429 L0.6408,90 L19.5088,90 C19.5088,90 33.1792,67.7142857 33.6776,66.9285714 L65.5752,66.9285714 L65.5752,90 L83.5176,90 L83.5176,0.428571429 L56.1768,0.428571429 Z" id="Shape"></path>
            </g>
            <rect id="Rectangle-path" x="96" y="172" width="17" height="89"></rect>
            <rect id="Rectangle-path" x="126" y="172" width="17" height="89"></rect>
            <g id="Group" transform="translate(129.000000, 0.000000)">
                <path d="M53.1019704,219.380488 C43.6347291,216.885908 41.6416256,215.531707 41.9263547,211.540379 C42.1399015,207.976694 45.0583744,205.909756 49.8987685,205.909756 C55.9492611,205.909756 63.2810345,208.047967 69.6162562,211.611653 L70.6128079,212.181843 L73.0330049,197.285637 L72.4635468,197.000542 C65.9859606,194.007046 58.2270936,192.439024 49.9699507,192.439024 C41.9975369,192.439024 35.2352217,194.862331 30.8931034,199.352575 C27.4051724,202.91626 25.696798,207.477778 25.7679803,212.609485 C26.0527094,226.365312 32.6014778,230.285366 48.1903941,234.276694 C58.4406404,236.842547 60.5761084,238.339295 60.5049261,243.257182 C60.4337438,247.676152 57.8,249.315447 50.8241379,249.315447 C43.4923645,249.315447 35.3064039,246.607046 28.1169951,241.974255 L27.0492611,241.261518 L24.629064,256.228997 L25.1273399,256.514092 C30.6795567,259.578862 40.2179803,262.786179 50.2546798,262.786179 C60.0066502,262.786179 67.1248768,260.50542 71.6093596,256.015176 C75.0972906,252.522764 76.805665,247.747425 76.6633005,241.831707 C76.3785714,226.935501 68.9044335,223.443089 53.1019704,219.380488" id="Shape"></path>
                <path d="M118.874384,246.535772 L117.949015,246.749593 C116.738916,247.105962 115.244089,247.248509 113.179803,247.248509 C108.05468,247.248509 105.634483,244.896477 105.634483,239.907317 L105.634483,208.261789 L118.376108,208.261789 L118.589655,193.721951 L105.5633,193.721951 L105.5633,172.268564 L88.4083744,172.268564 L88.4083744,193.721951 L79.4394089,193.721951 L79.4394089,208.261789 L88.4083744,208.261789 L88.4083744,242.544444 C88.4083744,256.08645 95.4554187,262.714905 110.047783,262.714905 C114.745813,262.714905 117.664286,262.215989 120.226847,261.645799 L121.009852,261.503252 L118.874384,246.535772 Z" id="Shape"></path>
                <path d="M149.909852,249.315447 C145.638916,249.315447 143.005172,246.67832 143.005172,242.473171 C143.005172,234.918157 150.265764,230.071545 163.932759,228.218428 L163.932759,242.972087 C159.661823,247.034688 154.821429,249.315447 149.909852,249.315447 M155.960345,192.296477 C145.14064,192.296477 136.95468,194.933604 130.477094,197.499458 L129.836453,197.713279 L132.043103,212.039295 L133.039655,211.611653 C140.869704,208.190515 147.418473,206.55122 153.896059,206.55122 C160.729557,206.55122 164.003941,209.402168 164.003941,215.531707 L164.003941,217.31355 C138.307143,219.950678 125.779064,228.717344 125.779064,244.18374 C125.779064,255.587534 133.18202,262.928726 144.571182,262.928726 C152.472414,262.928726 159.092365,260.006504 165.142857,254.16206 C165.498768,256.157724 166.352956,261.645799 166.352956,261.645799 L181.372414,261.645799 L181.372414,215.104065 C181.301232,199.566396 173.257635,192.296477 155.960345,192.296477" id="Shape"></path>
                <path d="M226.003695,246.535772 L225.149507,246.749593 C223.939409,247.105962 222.444581,247.248509 220.380296,247.248509 C215.18399,247.248509 212.763793,244.896477 212.763793,239.907317 L212.763793,208.261789 L225.576601,208.261789 L225.790148,193.721951 L212.763793,193.721951 L212.763793,172.268564 L195.608867,172.268564 L195.608867,193.721951 L186.711084,193.721951 L186.711084,208.261789 L195.608867,208.261789 L195.608867,242.544444 C195.608867,256.08645 202.727094,262.714905 217.319458,262.714905 C222.017488,262.714905 225.007143,262.144715 227.498522,261.645799 L228.281527,261.503252 L226.003695,246.535772 Z" id="Shape"></path>
                <path d="M248.426108,220.164499 C249.209113,210.4 253.408867,204.84065 260.1,204.84065 C269.068966,204.84065 271.489163,212.965854 271.845074,220.164499 L248.426108,220.164499 Z M285.654433,241.261518 C277.895567,246.67832 271.489163,249.030352 264.299754,249.030352 C254.974877,249.030352 249.137931,242.686992 248.141379,231.71084 L288.715271,231.71084 L288.928818,227.078049 C288.928818,204.05664 279.390394,192.367751 260.527094,192.367751 C252.269951,192.367751 245.436453,194.933604 240.31133,200.065312 C234.118473,206.266125 230.772906,215.888076 230.772906,227.86206 C230.772906,249.529268 243.016256,262.928726 262.591379,262.928726 C272.129803,262.928726 280.814039,260.220325 288.430542,255.017344 L288.857635,254.732249 L286.722167,240.54878 L285.654433,241.261518 Z" id="Shape"></path>
                <path d="M92.1098522,137.772087 C48.3327586,137.772087 12.7416256,106.340379 12.7416256,70.4897019 C12.7416256,34.6390244 48.3327586,5.48807588 92.1098522,5.48807588 C135.886946,5.48807588 171.478079,34.6390244 171.478079,70.4897019 C171.549261,106.340379 135.886946,137.772087 92.1098522,137.772087 M92.1098522,0.641463415 C41.5704433,0.641463415 0.427093596,31.9306233 0.427093596,70.3471545 C0.427093596,108.763686 41.5704433,142.476152 92.1098522,142.476152 C142.649261,142.476152 183.792611,108.763686 183.792611,70.3471545 C183.792611,31.9306233 142.720443,0.641463415 92.1098522,0.641463415" id="Shape"></path>
                <path d="M27.4763547,31.9306233 C27.832266,32.1444444 28.6864532,32.7859079 28.6864532,32.7859079 C28.8288177,32.8571816 34.3098522,37.4186992 35.1640394,38.1314363 C35.0216749,38.4878049 32.7438424,44.7598916 32.7438424,44.7598916 C30.6795567,50.0341463 28.5440887,55.3084011 28.4729064,59.4422764 L28.5440887,60.0837398 C28.5440887,60.1550136 30.3236453,69.5631436 30.3236453,69.5631436 L30.4660099,70.2758808 C31.4625616,75.1937669 32.6014778,80.7531165 33.0997537,84.8157182 C33.2421182,85.9560976 33.455665,86.6688347 33.9539409,86.8826558 C36.658867,89.7336043 41.1433498,95.5067751 46.4820197,106.482927 C46.6243842,106.768022 46.6955665,106.981843 46.837931,107.053117 C47.3362069,108.549864 47.9768473,109.547696 48.7598522,110.046612 C49.7564039,110.688076 51.6071429,110.688076 52.8172414,110.046612 C55.5933498,108.26477 57.5152709,105.698916 58.7253695,102.634146 C59.1524631,103.133062 60.2913793,104.62981 60.5049261,104.843631 C55.8780788,112.897561 64.0640394,115.819783 66.9825123,114.679404 C65.2741379,119.526016 71.5381773,123.44607 77.3751232,120.880217 C78.1581281,124.01626 80.6495074,124.942818 82.9985222,125.441734 C85.3475369,125.94065 88.6219212,126.154472 93.8182266,125.726829 C101.719458,125.085366 108.908867,122.66206 111.82734,121.165312 C117.949015,118.029268 121.294581,114.109214 123.216502,111.329539 C123.216502,111.258266 123.572414,110.830623 123.857143,110.545528 C124.497783,111.685908 125.209606,112.755014 125.921429,113.610298 C127.84335,115.534688 129.694089,116.389973 131.188916,116.104878 C132.25665,115.891057 133.110837,115.249593 133.609113,114.03794 C136.314039,107.480759 142.222167,99.4268293 146.849015,94.0100271 C146.849015,94.0100271 147.276108,93.1547425 147.276108,93.1547425 C148.27266,89.3059621 151.902956,79.8265583 153.824877,74.6948509 L155.17734,70.9886179 C155.17734,70.9886179 155.462069,70.1333333 155.462069,70.1333333 C155.533251,68.6365854 155.604433,67.2111111 155.604433,65.7143631 C155.604433,59.0859079 154.679064,52.8138211 152.828325,47.4682927 C151.974138,44.7598916 151.048768,43.1205962 150.194581,41.5525745 L149.19803,39.7707317 C150.550493,37.7750678 154.394335,35.2092141 157.455172,33.1422764 C157.455172,33.1422764 157.668719,33.0710027 157.668719,32.999729 L153.896059,28.8658537 C153.682512,29.0084011 151.262315,30.7189702 151.262315,30.7189702 C148.486207,32.5720867 145.710099,33.3560976 144.001724,32.6433604 C143.716995,32.5720867 141.439163,31.2178862 141.439163,31.2178862 C141.296798,31.1466125 140.869704,30.9327913 140.869704,30.9327913 C140.798522,30.9327913 140.0867,30.8615176 140.0867,30.8615176 C140.015517,30.8615176 139.232512,31.004065 139.232512,31.004065 L138.734236,31.1466125 L139.517241,32.0731707 C141.154433,33.997561 141.937438,35.6368564 143.147537,37.8463415 C143.147537,37.9176152 143.85936,39.1292683 143.85936,39.1292683 C143.85936,39.1292683 144.5,40.69729 144.5,40.69729 L144.642365,41.0536585 L145.496552,43.3344173 L145.638916,43.8333333 L146.137192,45.1162602 L147.987931,51.5308943 C149.553941,58.0880759 150.336946,63.4336043 150.336946,68.0663957 C150.336946,68.1376694 150.265764,68.5653117 150.265764,68.5653117 C150.265764,68.5653117 148.130296,74.6235772 148.130296,74.6235772 C145.923645,80.895664 143.147537,88.6644986 142.506897,91.8718157 L142.364532,92.2281843 C136.456404,98.4289973 132.25665,105.698916 130.477094,110.046612 C130.192365,110.616802 129.978818,110.688076 129.907635,110.688076 C129.622906,110.75935 128.911084,110.117886 128.555172,109.761518 C127.060345,108.407317 126.206158,105.627642 126.27734,102.70542 C126.419704,99.0704607 127.985714,95.8631436 130.548276,93.8674797 C130.975369,93.5823848 130.833005,92.9409214 130.69064,92.5845528 C129.978818,88.4506775 131.117734,82.1785908 133.680296,80.396748 L134.320936,79.897832 L133.680296,79.398916 C126.419704,73.7682927 122.860591,63.3623306 122.575862,55.5934959 L122.50468,54.595664 L121.365764,55.0945799 C121.223399,55.1658537 120.796305,55.8785908 120.796305,55.8785908 C120.511576,57.3753388 120.369212,58.9433604 120.369212,60.4401084 C120.369212,64.4314363 121.152217,67.9238482 121.436946,69.1355014 C122.433498,73.4119241 124.568966,77.403252 127.700985,80.9669377 C127.700985,80.9669377 127.772167,81.0382114 127.84335,81.1094851 C126.490887,82.8200542 125.921429,86.9539295 125.921429,90.1612466 C125.921429,91.1590786 125.992611,91.9430894 126.063793,92.6558266 C122.647044,95.5780488 121.721675,99.2842818 121.57931,101.921409 C121.57931,101.921409 121.721675,104.701084 121.721675,104.772358 C121.721675,104.701084 120.084483,106.839295 120.084483,106.839295 L119.799754,107.266938 C116.596552,111.685908 114.318719,114.821951 108.908867,117.601626 C103.000739,120.666396 91.6827586,122.733333 84.279803,122.020596 C81.5748768,121.735501 81.8596059,119.312195 81.8596059,119.169648 C81.8596059,118.813279 82.0019704,118.456911 82.2155172,118.171816 C82.2155172,118.171816 82.7849754,117.601626 82.9273399,117.387805 C89.903202,118.171816 96.594335,117.316531 99.3704433,115.891057 C99.5128079,115.748509 100.366995,114.536856 100.366995,114.536856 L100.722906,113.966667 L100.082266,114.109214 C94.1741379,115.605962 82.3578818,113.610298 76.0938424,110.973171 C69.1179803,107.979675 67.0536946,105.2 61.3591133,97.7162602 L59.7931034,95.6493225 C59.7219212,93.5823848 59.1524631,91.4441734 58.1559113,89.5910569 C57.2305419,87.8804878 55.9492611,86.8113821 55.5933498,86.5262873 C56.0204433,85.2433604 56.2339901,83.5327913 56.2339901,81.6796748 C56.2339901,79.1850949 55.8068966,76.6192412 54.8815271,75.1937669 C59.0812808,71.9151762 61.2167488,68.4940379 61.2167488,64.5739837 C61.1455665,62.7208672 60.1490148,59.9411924 60.1490148,59.9411924 L58.5118227,59.1571816 L58.6541872,60.2262873 C59.2948276,66.7834688 53.1731527,71.0598916 49.1157635,73.9108401 C49.1157635,73.9108401 47.905665,74.6948509 47.905665,74.6948509 L48.68867,75.1937669 C51.8918719,77.1894309 51.8918719,83.8891599 51.1800493,87.6666667 L51.108867,87.8804878 L51.2512315,88.1655827 L51.4647783,88.2368564 C51.4647783,88.2368564 52.9596059,89.4485095 52.9596059,89.4485095 C56.1628079,93.796206 55.8780788,100.424661 52.3901478,104.344715 C51.6783251,105.128726 51.3224138,105.2 51.108867,105.128726 C50.6105911,104.986179 50.1834975,103.774526 50.041133,103.346883 C50.041133,103.27561 49.0445813,101.279946 49.0445813,101.279946 C46.2684729,95.5067751 43.9194581,90.6601626 38.5807882,84.1742547 C38.5807882,84.1742547 38.4384236,83.6753388 38.4384236,83.6753388 C37.3706897,75.2650407 36.0894089,68.9929539 34.8081281,62.9346883 L34.0963054,59.6560976 C34.0963054,59.6560976 34.0251232,58.800813 34.0251232,58.800813 C34.3810345,52.3861789 36.3741379,47.3257453 38.7231527,41.4813008 L40.146798,37.8463415 L41.2857143,35.0666667 C41.2857143,35.0666667 41.4992611,34.6390244 41.4992611,34.6390244 C42.8517241,32.7146341 44.7024631,30.8615176 46.9091133,29.1509485 L47.905665,28.4382114 L46.6243842,27.8680217 C46.6243842,27.8680217 44.1330049,28.1531165 41.5704433,29.3647696 L41.1433498,29.5785908 C39.2926108,30.4338753 37.1571429,31.1466125 35.591133,30.5051491 C35.591133,30.5051491 31.320197,27.9392954 31.1066502,27.8680217 L27.4763547,31.9306233 Z M67.4807882,111.614634 C62.9963054,112.826287 61.3591133,109.690244 62.4268473,107.12439 C63.2810345,108.122222 66.4130542,110.973171 67.4807882,111.614634 Z M78.6564039,116.603794 C72.1076355,119.953659 68.5485222,117.031436 70.114532,113.539024 C72.25,114.964499 75.5243842,116.033604 78.6564039,116.603794 Z M59.7219212,10.4772358 C59.935468,10.6910569 60.7184729,11.4750678 60.7184729,11.4750678 L64.4199507,14.896206 C64.4199507,14.896206 66.5554187,16.8918699 66.5554187,16.8918699 C68.1214286,18.3886179 68.4773399,19.1726287 68.4773399,19.4577236 C68.4061576,19.7428184 68.1214286,19.8853659 67.8366995,20.0279133 C67.5519704,20.1704607 67.1248768,20.3130081 67.1248768,20.3130081 L66.9825123,21.7384824 L67.8366995,21.6672087 C72.7482759,21.5246612 77.3039409,24.8745257 80.2935961,27.6542005 C85.4899015,32.5720867 89.3337438,40.5547425 90.2591133,48.0384824 L94.3165025,69.0642276 L95.81133,72.2715447 L96.0960591,72.9130081 L96.7366995,74.2672087 C97.3061576,75.6214092 98.1603448,76.8330623 98.3027094,76.904336 C98.3738916,76.9756098 100.366995,78.6149051 100.366995,78.6149051 L103.285468,81.6084011 L104.139655,82.5349593 L105.5633,83.9604336 C105.705665,84.0317073 109.763054,84.5306233 109.763054,84.5306233 C116.952463,85.7422764 116.596552,89.7336043 116.596552,89.7336043 C116.596552,89.7336043 120.867488,83.1764228 110.688424,80.895664 C110.688424,80.895664 107.485222,80.2542005 107.414039,80.2542005 C107.414039,80.1829268 106.275123,78.6149051 106.275123,78.6149051 C106.132759,78.4723577 105.919212,78.1872629 105.919212,78.1872629 C105.84803,78.1159892 102.787192,75.1224932 102.787192,75.1224932 L101.363547,73.7682927 C101.363547,73.7682927 100.082266,70.3471545 100.082266,70.3471545 L98.3027094,65.999458 C97.8756158,64.6452575 97.5197044,62.5070461 97.1637931,59.5848238 C97.1637931,59.4422764 96.879064,57.4466125 96.879064,57.4466125 L95.526601,48.6086721 C95.526601,48.4661247 95.81133,46.898103 95.81133,46.898103 C96.3807882,43.6195122 97.662069,39.9132791 99.5128079,35.9932249 C101.719458,31.2891599 106.346305,28.1531165 106.417488,28.1531165 C109.834236,26.0149051 114.888177,24.8745257 117.593103,24.304336 C118.589655,24.2330623 118.945567,23.5915989 119.159113,22.9501355 L119.301478,22.5937669 L118.945567,22.5224932 C117.450739,22.2373984 115.742365,21.7384824 115.6,21.4533875 C115.6,21.3821138 115.528818,21.3108401 115.528818,21.1682927 C115.528818,20.8831978 115.742365,20.4555556 116.098276,19.9566396 C116.098276,19.9566396 118.304926,17.8184282 118.304926,17.8184282 L119.586207,16.5355014 C119.586207,16.5355014 124.996059,11.3325203 125.6367,10.6197832 L120.653941,8.90921409 C120.0133,9.62195122 115.101724,14.6111111 115.101724,14.6111111 C111.471429,18.5311653 107.342857,22.9501355 105.420936,23.7341463 C100.794089,25.6585366 96.0248768,30.1487805 94.1741379,34.496477 C94.1741379,34.496477 93.3199507,36.6346883 92.8928571,37.8463415 C91.4692118,33.7837398 89.7608374,30.4338753 87.3406404,27.5116531 C84.7068966,24.3756098 81.5036946,22.0235772 77.5174877,20.3842818 C75.3820197,18.3173442 68.2637931,11.8314363 64.4199507,8.62411924 L59.7219212,10.4772358 Z M90.2591133,72.9130081 C90.8285714,70.9173442 89.7608374,68.9216802 89.7608374,68.9216802 L89.1913793,70.204607 C88.7642857,71.3449864 87.5541872,72.5566396 85.7034483,73.7682927 L85.1339901,74.0533875 L92.4657635,84.601897 C92.4657635,84.601897 92.8928571,85.3146341 92.8928571,85.3146341 L94.3165025,87.2390244 C94.5300493,87.4528455 97.3773399,89.0208672 97.3773399,89.0208672 L98.4450739,89.6623306 L101.79064,91.6579946 L104.851478,93.6536585 L105.065025,93.7249322 L109.62069,94.0100271 C112.325616,94.2238482 113.962808,95.2216802 114.745813,95.8631436 C117.593103,97.9300813 116.098276,100.994851 116.098276,100.994851 C116.098276,100.994851 119.942118,97.3598916 117.379557,93.4398374 C116.454187,92.0856369 115.172906,90.80271 111.329064,90.3750678 C111.329064,90.3750678 106.631034,89.7336043 106.631034,89.7336043 C106.631034,89.7336043 104.139655,88.0230352 104.139655,88.0230352 L100.865271,85.9560976 L100.011084,85.4571816 L97.3061576,84.2455285 L90.2591133,72.9130081 Z M86.1305419,95.1504065 L86.6288177,95.7205962 C86.8423645,95.8631436 89.7608374,97.0747967 89.7608374,97.0747967 C91.7539409,97.8588076 94.458867,99.1417344 95.7401478,99.9257453 L99.0857143,101.921409 C99.3704433,102.063957 102.787192,101.778862 105.065025,101.921409 C107.912315,102.13523 110.118966,103.204336 111.257882,104.914905 C112.823892,107.12439 110.90197,109.476423 110.90197,109.476423 C111.329064,109.262602 114.532266,107.195664 114.318719,103.988347 C114.105172,100.852304 111.400246,97.9300813 101.363547,98.0726287 C101.363547,98.0726287 98.5874384,96.4333333 98.5874384,96.4333333 L97.8044335,95.9344173 L93.391133,93.6536585 C93.391133,93.6536585 89.7608374,92.4420054 89.7608374,92.4420054 C89.7608374,92.299458 88.9066502,90.8739837 88.9066502,90.8739837 C87.767734,88.7357724 86.1305419,86.6688347 84.7068966,84.8157182 L84.279803,84.3168022 C84.279803,84.3168022 81.7884236,80.895664 81.5036946,80.4680217 C82.2866995,78.7574526 81.6460591,76.3341463 81.6460591,76.3341463 C81.6460591,76.3341463 81.2189655,77.1181572 80.5783251,77.9734417 C79.8665025,78.8287263 78.0869458,80.2542005 76.805665,80.9669377 L76.1650246,81.3945799 L85.2763547,93.796206 L86.1305419,95.1504065 Z M74.5990148,100.424661 L76.1650246,102.063957 C76.1650246,102.063957 79.3682266,103.845799 79.3682266,103.845799 L82.3578818,105.485095 L82.7137931,105.698916 L84.9204433,106.910569 L88.6219212,108.977507 C88.835468,109.04878 89.3337438,109.04878 89.3337438,109.04878 L94.1029557,108.763686 C96.879064,108.692412 100.082266,108.763686 102.217734,109.761518 C104.566749,110.973171 103.783744,113.182656 103.783744,113.182656 C103.783744,113.182656 106.203941,111.400813 105.776847,109.333875 C105.5633,107.552033 103.427833,105.271274 96.4519704,104.843631 C94.2453202,104.701084 90.970936,104.986179 90.970936,104.986179 L90.6862069,104.986179 C90.6862069,104.914905 87.5541872,102.919241 87.5541872,102.919241 L86.2729064,102.13523 C86.0593596,102.063957 81.9307882,99.8544715 81.9307882,99.8544715 C81.9307882,99.8544715 79.2970443,98.8566396 79.2970443,98.7853659 C79.2970443,98.7140921 76.9480296,95.4355014 76.9480296,95.4355014 L76.0938424,94.2238482 C76.0938424,94.2238482 73.6024631,90.5888889 73.6024631,90.5888889 L72.5347291,89.0208672 C72.4635468,88.9495935 71.1110837,86.8113821 71.1110837,86.8113821 C71.2534483,86.8113821 72.5347291,84.8157182 72.3923645,82.6775068 C72.1788177,82.9626016 72.0364532,83.0338753 71.1110837,83.8891599 C70.114532,84.6731707 67.1960591,86.0273713 65.2029557,86.5262873 L64.3487685,86.7401084 L71.3958128,95.9344173 L74.5990148,100.424661 Z" id="Shape"></path>
            </g>
        </g>
    </g>
</svg>