<?xml version="1.0" encoding="UTF-8"?>
<svg width="351px" height="126px" viewBox="0 0 351 126" version="1.1" xmlns="http://www.w3.org/2000/svg" xmlns:xlink="http://www.w3.org/1999/xlink">
    <!-- Generator: Sketch 48.2 (47327) - http://www.bohemiancoding.com/sketch -->
    <title>american-family-insurance-vector-logo</title>
    <desc>Created with Sketch.</desc>
    <defs></defs>
    <g id="Page-1" stroke="none" stroke-width="1" fill="none" fill-rule="evenodd">
        <g id="american-family-insurance-vector-logo">
            <polyline id="Fill-72" fill="#B62E3A" points="3.187 39.212 103.887 11.012 199.887 34.912 343.087 34.912 343.087 24.412 200.587 24.412 103.687 0.212 0.387 29.112 3.187 39.212"></polyline>
            <path d="M344.895,97.582 C345.794,97.582 346.594,97.482 346.594,96.483 C346.594,95.582 345.895,95.482 345.094,95.482 L343.695,95.482 L343.695,97.582 L344.895,97.582 Z M343.695,101.483 L342.695,101.483 L342.695,94.582 L345.294,94.582 C346.895,94.582 347.695,95.182 347.695,96.483 C347.695,97.782 346.895,98.282 345.895,98.382 L347.895,101.483 L346.695,101.483 L344.895,98.482 L343.695,98.482 L343.695,101.483 Z M344.995,102.983 C347.695,102.983 349.794,100.882 349.794,97.983 C349.794,95.182 347.695,92.982 344.995,92.982 C342.195,92.982 340.094,95.182 340.094,97.983 C340.094,100.882 342.195,102.983 344.995,102.983 Z M338.895,97.983 C338.895,94.582 341.695,91.983 344.995,91.983 C348.195,91.983 350.995,94.582 350.995,97.983 C350.995,101.483 348.195,103.983 344.995,103.983 C341.695,103.983 338.895,101.483 338.895,97.983 Z" id="Fill-73" fill="#1C5C83"></path>
            <polygon id="Fill-74" fill="#1C5C83" points="8.687 103.812 335.687 103.812 335.687 74.512 8.687 74.512"></polygon>
            <path d="M23.287,46.112 L32.787,70.512 L26.487,70.512 L24.687,65.412 L17.287,65.412 L15.487,70.512 L9.287,70.512 L18.787,46.112 L23.287,46.112 Z M22.587,59.912 L20.987,55.012 L19.287,59.912 L22.587,59.912 Z" id="Fill-75" fill="#1C5C83"></path>
            <polyline id="Fill-76" fill="#1C5C83" points="44.287 46.112 48.887 59.512 53.587 46.112 60.787 46.112 60.787 70.512 55.287 70.512 55.287 57.112 50.887 70.512 46.987 70.512 42.587 57.112 42.587 70.512 37.087 70.512 37.087 46.112 44.287 46.112"></polyline>
            <polyline id="Fill-77" fill="#1C5C83" points="83.187 46.112 83.187 51.812 73.387 51.812 73.387 55.212 81.087 55.212 81.087 60.812 73.387 60.812 73.387 64.812 83.687 64.812 83.687 70.512 67.787 70.512 67.787 46.112 83.187 46.112"></polyline>
            <path d="M97.687,46.112 C100.587,46.112 102.787,46.812 104.287,48.312 C105.487,49.612 106.187,51.312 106.187,53.512 C106.187,57.312 103.887,59.712 101.987,60.212 L107.587,70.512 L100.887,70.512 L96.187,61.012 L95.287,61.012 L95.287,70.512 L89.687,70.512 L89.687,46.112 L97.687,46.112 Z M96.987,55.512 C98.187,55.512 99.387,55.512 99.887,54.912 C100.187,54.612 100.387,54.212 100.387,53.512 C100.387,52.912 100.187,52.512 99.987,52.212 C99.387,51.612 98.187,51.612 97.387,51.612 L95.287,51.612 L95.287,55.512 L96.987,55.512 Z" id="Fill-78" fill="#1C5C83"></path>
            <polygon id="Fill-79" fill="#1C5C83" points="111.987 70.512 117.587 70.512 117.587 46.112 111.987 46.112"></polygon>
            <path d="M138.487,53.012 C137.087,51.412 135.987,51.212 135.087,51.212 C131.687,51.212 129.187,54.112 129.187,58.112 C129.187,60.512 129.887,62.512 131.187,63.812 C132.287,64.812 133.587,65.412 135.087,65.412 C136.387,65.412 137.687,64.612 138.687,63.112 L139.287,62.212 L143.887,65.812 L143.387,66.612 C141.487,69.512 138.487,71.012 134.987,71.012 C131.787,71.012 129.087,69.912 126.987,67.812 C124.687,65.512 123.387,62.212 123.387,58.412 C123.387,54.512 124.687,51.112 126.987,48.712 C129.087,46.612 131.887,45.512 134.987,45.512 C138.187,45.512 140.787,46.812 142.887,49.512 L143.487,50.312 L139.087,53.812 L138.487,53.012" id="Fill-80" fill="#1C5C83"></path>
            <path d="M159.687,46.112 L169.187,70.512 L162.887,70.512 L160.887,65.412 L153.687,65.412 L151.887,70.512 L145.687,70.512 L155.187,46.112 L159.687,46.112 Z M158.987,59.912 L157.387,55.012 L155.587,59.912 L158.987,59.912 Z" id="Fill-81" fill="#1C5C83"></path>
            <polyline id="Fill-82" fill="#1C5C83" points="179.788 46.112 187.887 60.012 187.887 46.112 193.587 46.112 193.587 70.512 187.387 70.512 179.087 56.012 179.087 70.512 173.387 70.512 173.387 46.112 179.788 46.112"></polyline>
            <polyline id="Fill-83" fill="#1C5C83" points="228.487 46.112 228.487 51.812 218.987 51.812 218.987 55.612 226.288 55.512 226.288 61.212 219.087 61.212 219.087 70.512 213.387 70.512 213.387 46.112 228.487 46.112"></polyline>
            <path d="M243.987,46.112 L253.487,70.512 L247.187,70.512 L245.288,65.412 L237.987,65.412 L236.187,70.512 L229.987,70.512 L239.487,46.112 L243.987,46.112 Z M243.288,59.912 L241.587,54.912 L239.987,59.912 L243.288,59.912 Z" id="Fill-84" fill="#1C5C83"></path>
            <polyline id="Fill-85" fill="#1C5C83" points="264.987 46.112 269.587 59.612 274.288 46.112 281.387 46.112 281.387 70.512 275.987 70.512 275.987 57.112 271.587 70.512 267.587 70.512 263.288 57.112 263.187 70.512 257.788 70.512 257.788 46.112 264.987 46.112"></polyline>
            <polygon id="Fill-86" fill="#1C5C83" points="288.387 70.512 293.987 70.512 293.987 46.112 288.387 46.112"></polygon>
            <polyline id="Fill-87" fill="#1C5C83" points="306.487 46.112 306.487 64.812 315.087 64.812 315.087 70.512 300.887 70.512 300.887 46.112 306.487 46.112"></polyline>
            <polyline id="Fill-88" fill="#1C5C83" points="313.587 46.112 320.487 46.112 324.788 53.912 329.187 46.112 335.788 46.112 327.487 59.912 327.487 70.512 321.887 70.512 321.887 59.912 313.587 46.112"></polyline>
            <path d="M23.087,117.112 L23.687,112.312 L21.087,117.112 L23.087,117.112 Z M22.487,120.712 L19.387,120.712 L17.587,124.012 L14.587,124.012 L23.687,107.412 L27.487,107.412 L25.787,124.012 L22.087,124.012 L22.487,120.712 Z" id="Fill-89" fill="#131514"></path>
            <path d="M38.887,118.112 C38.187,120.112 37.587,121.612 35.987,122.912 C34.587,124.012 33.287,124.312 32.087,124.312 C30.987,124.312 29.687,123.912 28.987,123.112 C28.187,121.912 28.387,120.312 29.087,118.412 L32.687,107.512 L36.387,107.512 L32.987,117.812 C32.787,118.412 32.487,119.112 32.587,119.612 C32.687,120.112 33.187,120.412 33.587,120.412 C33.987,120.412 34.587,120.212 35.087,119.812 C35.587,119.412 35.787,118.712 36.187,117.612 L39.487,107.512 L42.387,107.512 L38.887,118.112" id="Fill-90" fill="#131514"></path>
            <polyline id="Fill-91" fill="#131514" points="44.487 124.112 41.087 124.112 45.187 111.512 42.687 111.512 43.987 107.512 52.387 107.512 51.087 111.512 48.587 111.512 44.487 124.112"></polyline>
            <path d="M54.787,115.912 C54.187,117.512 53.287,120.612 54.987,120.612 C56.587,120.612 57.787,117.512 58.287,115.912 C58.787,114.312 59.687,111.112 58.087,111.112 C56.487,111.112 55.287,114.312 54.787,115.912 Z M62.187,115.912 C60.587,120.612 57.287,124.412 53.687,124.412 C50.187,124.312 49.287,120.612 50.887,115.912 C52.487,110.912 55.787,107.312 59.387,107.312 C62.887,107.312 63.787,111.012 62.187,115.912 Z" id="Fill-92" fill="#131514"></path>
            <polyline id="Fill-93" fill="#131514" points="77.187 124.212 73.587 124.212 75.687 117.712 72.887 117.712 70.787 124.212 67.187 124.212 72.587 107.612 76.187 107.612 74.187 113.712 76.987 113.712 78.987 107.612 82.587 107.612 77.187 124.212"></polyline>
            <path d="M85.587,116.012 C85.087,117.612 84.187,120.712 85.887,120.712 C87.487,120.712 88.687,117.612 89.187,116.012 C89.687,114.412 90.587,111.212 88.987,111.212 C87.387,111.212 86.187,114.412 85.587,116.012 Z M93.087,116.012 C91.487,120.712 88.187,124.512 84.587,124.512 C81.087,124.512 80.187,120.712 81.787,116.012 C83.387,111.012 86.587,107.412 90.187,107.412 C93.787,107.412 94.687,111.112 93.087,116.012 Z" id="Fill-94" fill="#131514"></path>
            <polyline id="Fill-95" fill="#131514" points="105.087 124.312 101.787 124.312 105.687 112.412 105.587 112.412 99.587 124.312 97.287 124.312 98.887 112.412 94.987 124.312 92.287 124.312 97.787 107.712 102.487 107.712 101.287 116.512 105.787 107.712 110.587 107.712 105.087 124.312"></polyline>
            <polyline id="Fill-96" fill="#131514" points="116.487 124.312 107.687 124.312 113.087 107.712 121.987 107.812 120.687 111.612 115.387 111.612 114.587 114.012 118.887 114.012 117.687 117.712 113.387 117.712 112.487 120.312 117.887 120.412 116.487 124.312"></polyline>
            <path d="M132.687,114.212 C132.987,114.212 133.387,114.212 133.787,113.912 C134.087,113.612 134.387,113.112 134.487,112.812 C134.887,111.512 134.187,111.412 133.487,111.412 L132.087,111.412 L131.187,114.212 L132.687,114.212 Z M130.587,120.712 C130.987,120.712 131.387,120.712 131.787,120.412 C132.087,120.112 132.387,119.712 132.587,119.212 C132.787,118.712 132.687,118.112 132.487,117.912 C132.187,117.712 131.787,117.712 131.487,117.712 L130.087,117.712 L129.087,120.712 L130.587,120.712 Z M129.987,107.812 L135.687,107.812 C136.587,107.812 137.487,107.912 137.987,108.712 C138.487,109.512 138.587,110.812 138.087,112.212 C137.487,113.912 136.287,115.412 134.887,115.812 C136.187,116.212 136.587,117.612 135.987,119.612 C135.487,121.012 134.587,122.612 133.487,123.512 C132.287,124.412 130.987,124.412 129.887,124.412 L124.487,124.412 L129.987,107.812 Z" id="Fill-97" fill="#131514"></path>
            <path d="M147.987,118.512 C147.387,120.412 146.687,122.012 145.087,123.312 C143.787,124.412 142.387,124.712 141.187,124.712 C140.087,124.712 138.787,124.312 138.187,123.512 C137.287,122.312 137.587,120.712 138.187,118.812 L141.787,107.812 L145.487,107.812 L142.087,118.212 C141.887,118.812 141.687,119.512 141.687,120.012 C141.787,120.512 142.287,120.712 142.787,120.712 C143.187,120.712 143.787,120.612 144.187,120.212 C144.687,119.712 144.987,119.112 145.287,118.012 L148.687,107.912 L151.487,107.912 L147.987,118.512" id="Fill-98" fill="#131514"></path>
            <path d="M153.087,118.812 C152.887,120.312 153.487,120.812 154.487,120.812 C154.987,120.812 155.987,120.712 156.287,119.812 C156.587,118.812 155.787,118.612 155.287,118.512 C153.287,117.812 150.887,117.012 152.187,113.012 C152.687,111.412 153.787,109.812 155.087,108.912 C156.287,108.012 157.687,107.712 158.887,107.712 C160.887,107.712 162.487,108.912 162.287,111.712 L158.887,113.012 C158.887,111.812 158.387,111.312 157.487,111.312 C156.987,111.312 156.287,111.512 155.987,112.412 C155.687,113.212 156.487,113.412 156.887,113.612 C157.887,113.912 158.987,114.212 159.787,114.912 C160.687,115.812 160.787,117.312 160.187,119.212 C158.887,123.112 155.487,124.712 153.087,124.712 C150.587,124.712 148.887,123.212 149.387,119.612 L153.087,118.812" id="Fill-99" fill="#131514"></path>
            <polyline id="Fill-100" fill="#131514" points="164.287 124.512 160.587 124.512 166.087 107.912 169.687 107.912 164.287 124.512"></polyline>
            <path d="M173.987,124.512 L173.087,116.812 L172.987,113.812 L172.987,114.012 C172.787,115.112 172.687,115.712 172.287,116.812 L169.787,124.512 L166.787,124.512 L172.287,107.912 L175.687,108.012 L176.587,117.212 L176.687,117.212 L177.887,112.612 L179.387,108.012 L182.387,108.012 L176.887,124.512 L173.987,124.512" id="Fill-101" fill="#131514"></path>
            <polyline id="Fill-102" fill="#131514" points="188.288 124.612 179.387 124.612 184.887 108.012 193.687 108.012 192.487 111.812 187.187 111.812 186.387 114.212 190.687 114.312 189.387 117.912 185.087 117.912 184.288 120.612 189.587 120.612 188.288 124.612"></polyline>
            <path d="M194.887,119.012 C194.788,120.412 195.387,121.012 196.387,121.012 C196.887,121.012 197.788,120.912 198.087,120.012 C198.487,119.012 197.587,118.812 197.087,118.612 C195.087,118.012 192.788,117.112 194.087,113.212 C194.587,111.612 195.687,110.012 196.887,109.112 C198.187,108.112 199.587,107.812 200.687,107.812 C202.788,107.812 204.387,109.012 204.187,111.912 L200.687,113.112 C200.788,111.912 200.288,111.512 199.387,111.512 C198.887,111.512 198.087,111.712 197.887,112.512 C197.587,113.412 198.387,113.612 198.788,113.712 C199.788,114.012 200.887,114.312 201.687,115.112 C202.487,115.912 202.587,117.512 201.987,119.312 C200.687,123.312 197.387,124.912 194.987,124.912 C192.487,124.812 190.788,123.412 191.288,119.812 L194.887,119.012" id="Fill-103" fill="#131514"></path>
            <path d="M206.887,119.012 C206.788,120.512 207.387,121.012 208.387,121.012 C208.887,121.012 209.887,120.912 210.187,120.012 C210.487,119.012 209.587,118.812 209.187,118.712 C207.087,118.012 204.788,117.212 206.087,113.212 C206.587,111.612 207.687,110.012 208.987,109.112 C210.187,108.112 211.587,107.812 212.788,107.812 C214.788,107.912 216.387,109.112 216.187,111.912 L212.788,113.212 C212.788,112.012 212.288,111.512 211.387,111.512 C210.887,111.512 210.187,111.712 209.887,112.612 C209.587,113.412 210.387,113.612 210.788,113.812 C211.788,114.112 212.887,114.412 213.687,115.112 C214.587,116.012 214.687,117.512 214.087,119.312 C212.788,123.312 209.387,124.912 206.987,124.912 C204.487,124.912 202.788,123.412 203.288,119.812 L206.887,119.012" id="Fill-104" fill="#131514"></path>
            <polyline id="Fill-105" fill="#131514" points="230.288 124.712 226.687 124.712 228.788 118.312 225.987 118.312 223.887 124.712 220.288 124.712 225.687 108.112 229.288 108.112 227.288 114.312 230.087 114.312 232.087 108.212 235.687 108.212 230.288 124.712"></polyline>
            <polyline id="Fill-106" fill="#131514" points="241.487 124.812 232.587 124.712 238.087 108.212 246.887 108.212 245.687 112.012 240.288 112.012 239.587 114.412 243.887 114.412 242.587 118.112 238.288 118.112 237.487 120.812 242.788 120.812 241.487 124.812"></polyline>
            <path d="M251.288,117.912 L251.887,113.112 L249.387,117.912 L251.288,117.912 Z M250.687,121.612 L247.587,121.512 L245.788,124.812 L242.887,124.812 L251.987,108.212 L255.788,108.212 L253.987,124.812 L250.288,124.812 L250.687,121.612 Z" id="Fill-107" fill="#131514"></path>
            <polyline id="Fill-108" fill="#131514" points="263.987 124.912 255.687 124.812 261.187 108.312 264.788 108.312 260.687 120.812 265.288 120.812 263.987 124.912"></polyline>
            <polyline id="Fill-109" fill="#131514" points="269.587 124.912 266.087 124.912 270.288 112.312 267.788 112.312 269.087 108.312 277.387 108.312 276.087 112.312 273.687 112.312 269.587 124.912"></polyline>
            <polyline id="Fill-110" fill="#131514" points="283.687 124.912 280.087 124.912 282.187 118.512 279.387 118.412 277.288 124.912 273.687 124.912 279.087 108.312 282.788 108.312 280.687 114.512 283.487 114.512 285.487 108.312 289.187 108.412 283.687 124.912"></polyline>
            <polyline id="Fill-111" fill="#131514" points="300.288 125.012 291.987 125.012 297.487 108.412 301.087 108.412 296.987 120.912 301.587 120.912 300.288 125.012"></polyline>
            <polyline id="Fill-112" fill="#131514" points="305.587 125.012 301.887 125.012 307.387 108.412 310.987 108.412 305.587 125.012"></polyline>
            <polyline id="Fill-113" fill="#131514" points="313.587 118.812 311.587 125.012 307.987 125.012 313.487 108.412 321.987 108.512 320.687 112.412 315.687 112.412 314.788 115.112 318.587 115.112 317.387 118.812 313.587 118.812"></polyline>
            <polyline id="Fill-114" fill="#131514" points="326.788 125.112 317.987 125.012 323.387 108.512 332.288 108.512 330.987 112.312 325.687 112.312 324.887 114.712 329.187 114.712 327.987 118.412 323.687 118.412 322.788 121.112 328.087 121.112 326.788 125.112"></polyline>
            <polygon id="Fill-115" fill="#FFFFFE" points="38.687 97.712 46.387 97.712 46.387 80.612 38.687 80.612"></polygon>
            <path d="M97.887,91.912 C98.587,93.412 99.887,93.912 102.087,93.912 C103.087,93.912 104.987,93.812 104.987,92.912 C104.987,91.912 103.087,91.712 101.987,91.512 C97.287,90.912 91.687,90.012 91.687,85.912 C91.687,84.312 92.887,82.612 94.887,81.612 C96.987,80.612 99.587,80.312 102.087,80.312 C106.387,80.312 110.087,81.212 112.087,85.812 L105.787,85.812 C105.087,84.612 103.687,84.112 101.787,84.112 C100.787,84.112 99.287,84.312 99.287,85.212 C99.287,86.112 101.087,86.312 102.087,86.412 C104.387,86.812 106.887,87.112 109.087,87.812 C111.587,88.712 112.787,90.312 112.787,92.212 C112.787,96.312 106.887,98.012 101.687,98.012 C96.487,98.012 92.587,96.212 91.687,91.912 L97.887,91.912" id="Fill-116" fill="#FFFFFE"></path>
            <path d="M144.287,91.612 C144.287,93.612 143.887,95.212 141.487,96.512 C139.387,97.712 136.787,98.012 134.087,98.012 C131.887,98.012 128.887,97.612 126.887,96.812 C124.287,95.512 123.787,93.912 123.787,91.912 L123.787,80.612 L131.587,80.612 L131.587,91.312 C131.587,91.912 131.587,92.612 131.987,93.112 C132.587,93.712 133.787,93.912 134.787,93.912 C135.587,93.912 136.687,93.712 137.387,93.312 C138.187,92.912 138.287,92.212 138.287,91.112 L138.287,80.612 L144.287,80.612 L144.287,91.612" id="Fill-117" fill="#FFFFFE"></path>
            <path d="M166.687,87.512 C168.387,87.512 170.387,87.312 170.387,85.812 C170.387,85.312 169.987,84.712 169.187,84.512 C168.587,84.212 167.787,84.212 166.987,84.212 L163.887,84.212 L163.887,87.512 L166.687,87.512 Z M169.987,97.712 L166.287,91.212 L163.887,91.212 L163.887,97.712 L156.187,97.712 L156.187,80.612 L168.887,80.612 C171.087,80.612 173.487,80.812 175.287,81.612 C177.387,82.512 178.387,84.112 178.387,85.712 C178.387,88.012 176.887,89.312 173.987,90.212 L178.487,97.712 L169.987,97.712 Z" id="Fill-118" fill="#FFFFFE"></path>
            <path d="M200.587,90.612 L198.587,85.612 L196.587,90.612 L200.587,90.612 Z M201.987,94.412 L195.288,94.412 L193.788,97.712 L187.587,97.712 L195.288,80.612 L203.387,80.612 L211.187,97.712 L203.387,97.712 L201.987,94.412 Z" id="Fill-119" fill="#FFFFFE"></path>
            <polyline id="Fill-120" fill="#FFFFFE" points="236.587 97.712 227.687 87.812 227.687 97.712 221.487 97.712 221.487 80.612 228.687 80.612 236.587 89.412 236.587 80.612 242.788 80.612 242.788 97.712 236.587 97.712"></polyline>
            <path d="M275.687,91.112 C275.187,95.012 270.987,98.012 265.288,98.012 C257.788,98.012 253.788,94.312 253.788,89.412 C253.788,84.412 257.288,80.312 265.087,80.312 C271.487,80.312 275.187,83.212 275.687,87.512 L268.487,87.512 C268.487,86.012 267.788,84.212 265.187,84.212 C261.788,84.212 261.687,87.712 261.687,89.412 C261.687,91.112 261.788,94.012 265.288,94.012 C267.687,94.012 268.587,92.612 268.687,91.212 L275.687,91.112" id="Fill-121" fill="#FFFFFE"></path>
            <polyline id="Fill-122" fill="#FFFFFE" points="305.788 97.712 286.987 97.712 286.987 80.612 305.788 80.612 305.788 84.512 294.487 84.512 294.487 87.012 303.587 87.012 303.587 90.812 294.487 90.812 294.487 93.612 305.788 93.612 305.788 97.712"></polyline>
            <polyline id="Fill-123" fill="#FFFFFE" points="73.787 97.712 64.887 87.812 64.887 97.712 58.687 97.712 58.687 80.612 65.887 80.612 73.787 89.412 73.787 80.612 79.987 80.612 79.987 97.712 73.787 97.712"></polyline>
        </g>
    </g>
</svg>