<?xml version="1.0" encoding="UTF-8"?>
<svg width="521px" height="277px" viewBox="0 0 521 277" version="1.1" xmlns="http://www.w3.org/2000/svg" xmlns:xlink="http://www.w3.org/1999/xlink">
    <!-- Generator: Sketch 48.2 (47327) - http://www.bohemiancoding.com/sketch -->
    <title>farmers-insurance-3</title>
    <desc>Created with Sketch.</desc>
    <defs></defs>
    <g id="Page-1" stroke="none" stroke-width="1" fill="none" fill-rule="evenodd">
        <g id="farmers-insurance-3" fill-rule="nonzero">
            <path d="M143.022894,122.507091 L238.513531,122.507091 C238.513531,122.507091 251.228175,137 259.809251,137 C268.390328,137 281.104972,122.507091 281.104972,122.507091 L376.961875,122.507091 C376.961875,122.507091 382.50818,0 259.809251,0 C138.418414,0 143.022894,122.507091 143.022894,122.507091 Z" id="path3010" fill="#FFFFFF"></path>
            <path d="M148,116 L371,116 C371,116 370.582104,5 259.787319,5 C147.425422,5 148,116 148,116 Z" id="path2995" fill="#013088"></path>
            <path d="M226.164081,10 C224.276916,29.201382 224.539022,48.4027641 224.958392,67.5518263 C206.873061,60.0700888 188.735308,54.8381046 170.649976,50.8094768 C180.87212,67.0809477 191.723319,82.9861797 204.199577,97.7403751 C185.327927,102.71076 166.718383,108.361303 149,116 L372,116 C355.330042,108.465943 335.567231,103.495558 316.800423,97.7403751 C327.96615,83.5616979 339.184297,70.8479763 350.350024,50.8094768 C331.635637,54.7857848 313.550306,60.4886476 296.041608,67.5518263 C296.618242,48.6120434 296.932769,29.6722606 294.835919,10 C281.4685,24.4402764 271.508463,40.6071076 260.237894,56.1461007 C250.592384,40.7640671 238.850024,25.3820336 226.164081,10 Z" id="path2997" fill="#B5C4EB"></path>
            <path d="M207.821696,116.947399 C193.767156,106.847913 182.020078,97.2744425 173,88.4899943 C188.575367,86.1755289 203.049446,86.0703259 218.624813,86.0177244 C211.702427,71.8679245 210.234043,57.4551172 206.563081,42.7793025 C220.407851,51.3533448 235.091699,58.7701544 245.160623,69.5534591 C247.57297,54.6672384 253.551393,39.3076043 260.631106,25 C266.714414,39.6758148 273.112376,54.3516295 275.996704,68.4488279 C288.635301,57.1921098 301.221456,50.5643225 313.860054,43.2001144 C311.185496,59.1909663 307.514534,73.971984 301.955649,86.4911378 C317.111477,86.1229274 332.267306,85.9125214 348,88.9634077 C336.305364,100.746141 324.663171,108.583762 312.968535,117 L207.821696,116.947399 Z" id="path3002" fill="#FFFFFF"></path>
            <path d="M260,129 L260,67 L225,67 C225.207407,103.157983 242.525926,121.132773 260,129 Z" id="path3004" fill="#E01A33"></path>
            <path d="M260,129 L260,67 L295,67 C294.792593,103.157983 277.474074,121.132773 260,129 Z" id="path3006" fill="#B20032"></path>
            <polygon id="rect3012" fill="#013088" points="0 146.052632 0 208 12.1067961 208 12.1067961 182.578947 37.3118932 182.578947 37.3118932 172.105263 12.1067961 172.105263 12.1067961 156.473684 39.3470874 156.473684 43 146 0 146"></polygon>
            <polygon id="path3019" fill="#013186" points="327 146 327 208 339.092121 208 339.092121 207.947324 366.924848 207.947324 366.924848 197.517417 339.092121 197.517417 339.092121 180.871708 364.266667 180.871708 364.266667 170.441801 339.092121 170.441801 339.092121 156.482583 366.351515 156.482583 370 146"></polygon>
            <path d="M81.6186007,147 L57,209 L70.2721843,209 L75.0085324,195.848485 L99.5230375,195.848485 L104.103242,208.739057 L118,208.739057 L93.4854949,147.052189 L81.6186007,147.052189 L81.6186007,147 Z M87.0836177,163.282828 L96.3481229,186.350168 L77.9232082,186.350168 L87.0836177,163.282828 Z" id="path3029" fill="#013088"></path>
            <path d="M145,146 L145,207.843829 L157.914938,207.843829 L157.914938,183.949622 L163.672199,183.949622 L179.854772,208 L195,208 L176.587137,181.971453 C176.587137,181.971453 189.242739,178.327456 189.242739,165.88581 C189.242739,146.468514 170,146 170,146 L145,146 Z M157.863071,155.734677 L168.236515,155.734677 C168.236515,155.734677 177.209544,156.463476 177.209544,165.313182 C177.209544,174.31906 168.029046,174.735516 168.029046,174.735516 L157.759336,174.735516 L157.863071,155.734677 Z" id="path3034" fill="#013088"></path>
            <path d="M400,146 L400,207.843829 L412.914938,207.843829 L412.914938,183.949622 L418.672199,183.949622 L434.854772,208 L450,208 L431.639004,182.02351 C431.639004,182.02351 444.294606,178.379513 444.294606,165.937867 C444.294606,146.520571 425.051867,146.052057 425.051867,146.052057 L400,146.052057 L400,146 Z M412.863071,155.734677 L423.236515,155.734677 C423.236515,155.734677 432.209544,156.463476 432.209544,165.313182 C432.209544,174.31906 423.029046,174.735516 423.029046,174.735516 L412.759336,174.735516 L412.863071,155.734677 Z" id="path3039" fill="#013088"></path>
            <polygon id="path3041" fill="#013088" points="237.778519 170.210793 234.938519 209 223 209 228.206667 147 240.671111 147 259.394074 187.56661 276.802222 147 288.267407 147 294 208.738617 281.00963 208.738617 278.905926 169.94941 260.708889 208.738617 255.239259 208.738617 237.778519 170.210793"></polygon>
            <path d="M474,201.47449 L479.948817,192.380837 C491.220259,199.897556 499.517293,200.05525 506.614127,195.114189 C508.127423,190.068 506.979406,187.387212 504.631188,185.547455 L484.332156,177.347398 C475.565478,170.303758 472.277974,162.051136 482.036121,150.854903 C490.854981,143.338184 502.230789,143.233055 515.850448,149.540792 L515.328622,161.210105 C507.501232,158.424187 500.195667,152.642096 491.063711,157.583156 C486.523825,163.575506 490.594068,166.361423 493.411929,168.306308 C506.405397,172.984546 516.267909,176.874317 518.668309,182.235893 C522.112361,192.853917 518.146483,197.900106 515.015527,202.262957 C500.300032,213.879706 483.705964,208.360436 474,201.47449 Z" id="path3043" fill="#013088"></path>
            <polygon id="rect3045" fill="#E21931" points="87 242 94 242 94 276 87 276 87 242"></polygon>
            <polygon id="path3054" fill="#E21931" points="116.981096 252.786936 116.981096 275.735614 111 275.735614 111 242.264386 116.716446 242.264386 133.548204 265.054432 133.548204 242 139 242 139 276 133.918715 276"></polygon>
            <polygon id="path3056" fill="#E21931" points="328.981096 252.786936 328.981096 275.735614 323 275.735614 323 242.264386 328.716446 242.264386 345.548204 265.054432 345.548204 242 351 242 351 276 345.918715 276 328.981096 252.786936"></polygon>
            <path d="M154,271.990349 L157.350427,267.025842 C163.732192,271.111218 167.295344,271.628354 171.337129,268.887532 C172.985752,267.542978 173.464384,265.164152 171.656217,263.664457 L159.849951,258.544809 C154.425451,255.855701 152.989554,250.374058 158.520417,244.220138 C163.519466,240.083049 169.954413,240.031336 177.718894,243.496148 L177.399806,249.908636 C172.93257,248.357227 166.923075,245.409551 163.944917,248.098659 C161.658118,250.425772 162.934471,252.132321 164.529913,253.166594 C171.922124,255.700561 177.984801,258.493096 179.314335,261.440772 C181.282046,267.232696 178.569796,270.180372 176.761629,272.559199 C169.582143,278.454551 159.530863,275.765443 154,271.990349 Z" id="path3058" fill="#E21931"></path>
            <path d="M208.013209,277 C195.137604,277 194,265.403614 194,265.403614 L194,242.263554 L201.032459,242.263554 L201.032459,265.350904 C201.032459,265.350904 201.291005,271.254518 207.806372,271.254518 C213.546099,271.254518 214.683703,265.930723 214.683703,265.930723 L214.683703,242 L220.992232,242 L220.992232,265.14006 C221.043941,265.14006 221.199069,277 208.013209,277 Z" id="path3060" fill="#E21931"></path>
            <path d="M239,242 L239,275.896024 L246.251418,275.896024 L246.251418,262.795107 L249.480151,262.795107 L258.531191,276 L267,276 L256.731569,261.755352 C256.731569,261.755352 263.824197,259.727829 263.824197,252.917431 C263.824197,242.259939 253.026465,242 253.026465,242 L239,242 Z M246.198488,247.35474 L252.020794,247.35474 C252.020794,247.35474 257.049149,247.718654 257.049149,252.605505 C257.049149,257.544343 251.914934,257.752294 251.914934,257.752294 L246.198488,257.752294 L246.198488,247.35474 Z" id="path3062" fill="#E21931"></path>
            <path d="M289.75814,242 L276,276 L283.432558,276 L286.068217,268.7737 L299.72093,268.7737 L302.251163,275.844037 L310,275.844037 L296.347287,242 L289.75814,242 Z M292.815504,250.941896 L297.981395,263.626911 L287.702326,263.626911 L292.815504,250.941896 Z" id="path3064" fill="#E21931"></path>
            <path d="M366.001676,259.311786 C365.896419,249.872515 370.738235,241.424107 383.263801,241.006902 C387.31619,240.85045 392.894803,243.405832 392.894803,243.405832 L393.31583,249.976817 C393.31583,249.976817 387.105676,246.587023 383.263801,247.004228 C377.001018,247.630036 372.211831,250.498323 372.211831,259.57254 C372.211831,265.517716 376.948389,270.106974 382.842773,270.106974 C386.842534,270.106974 391.684349,267.342989 391.684349,267.342989 L394,272.714508 C394,272.714508 387.895102,276 383.053287,276 C374.053826,275.947849 366.106933,270.211276 366.001676,259.311786 Z" id="path3066" fill="#E21931"></path>
            <polygon id="path3068" fill="#E21931" points="411 242 411 276 433.293333 276 433.293333 270.2625 417.773333 270.2625 417.773333 261.125 431.8 261.125 431.8 255.3875 417.773333 255.3875 417.773333 247.7375 432.973333 247.7375 435 242 411 242"></polygon>
            <path d="M505,132.433962 L505.95,132.333333 C506,132.735849 506.1,133.037736 506.25,133.289308 C506.4,133.540881 506.7,133.742138 507.05,133.893082 C507.4,134.044025 507.8,134.144654 508.25,134.144654 C508.65,134.144654 509,134.09434 509.3,133.993711 C509.6,133.893082 509.8,133.691824 509.95,133.490566 C510.1,133.289308 510.15,133.08805 510.15,132.836478 C510.15,132.584906 510.1,132.383648 509.95,132.18239 C509.8,131.981132 509.6,131.830189 509.25,131.72956 C509.05,131.628931 508.6,131.528302 507.85,131.327044 C507.15,131.176101 506.65,130.974843 506.35,130.823899 C506,130.622642 505.7,130.371069 505.5,130.119497 C505.3,129.81761 505.25,129.515723 505.25,129.163522 C505.25,128.761006 505.35,128.408805 505.6,128.056604 C505.8,127.704403 506.15,127.45283 506.55,127.251572 C507,127.050314 507.45,127 507.95,127 C508.55,127 509.05,127.100629 509.45,127.301887 C509.9,127.503145 510.25,127.754717 510.45,128.106918 C510.7,128.459119 510.8,128.861635 510.85,129.314465 L509.85,129.36478 C509.8,128.861635 509.6,128.509434 509.3,128.257862 C509,128.006289 508.55,127.855346 507.95,127.855346 C507.35,127.855346 506.9,127.955975 506.6,128.207547 C506.3,128.459119 506.15,128.710692 506.15,129.012579 C506.15,129.314465 506.25,129.515723 506.45,129.716981 C506.65,129.918239 507.15,130.069182 508,130.27044 C508.85,130.471698 509.4,130.622642 509.7,130.773585 C510.15,130.974843 510.5,131.226415 510.7,131.578616 C510.9,131.880503 511,132.283019 511,132.685535 C511,133.08805 510.9,133.490566 510.65,133.842767 C510.4,134.194969 510.05,134.496855 509.65,134.698113 C509.2,134.899371 508.7,135 508.15,135 C507.45,135 506.85,134.899371 506.4,134.698113 C505.95,134.496855 505.55,134.194969 505.3,133.792453 C505.05,133.389937 505,132.987421 505,132.433962 Z" id="path3088" fill="#013088"></path>
            <path d="M513,135 L513,127 L514.675676,127 L516.675676,132.677419 C516.837838,133.193548 517,133.606452 517.054054,133.864516 C517.162162,133.554839 517.324324,133.141935 517.486486,132.574194 L519.486486,127 L521,127 L521,135 L519.918919,135 L519.918919,128.290323 L517.486486,135 L516.459459,135 L514.027027,128.187097 L514.027027,135 L513,135 Z" id="path3090" fill="#013088"></path>
        </g>
    </g>
</svg>