<?xml version="1.0" encoding="UTF-8"?>
<svg width="465px" height="104px" viewBox="0 0 465 104" version="1.1" xmlns="http://www.w3.org/2000/svg" xmlns:xlink="http://www.w3.org/1999/xlink">
    <!-- Generator: Sketch 48.2 (47327) - http://www.bohemiancoding.com/sketch -->
    <title>ForemostInsurance</title>
    <desc>Created with Sketch.</desc>
    <defs></defs>
    <g id="Page-1" stroke="none" stroke-width="1" fill="none" fill-rule="evenodd">
        <g id="ForemostInsurance" transform="translate(-3.000000, -183.000000)">
            <polygon id="Fill-1" points="0 470 470 470 470 0 0 0"></polygon>
            <path d="M14.2101193,280 C11.3303443,280 9,277.694995 9,274.85483 L9,193.124916 C9,190.280078 11.3303443,188 14.2006463,188 L69.1808247,188 C71.2767136,188 72.9747388,189.68961 72.9747388,191.766373 L72.9747388,202.42595 C72.9747388,204.51284 71.2767136,206.203229 69.1808247,206.203229 L41.4053631,206.203229 C36.6894157,206.203229 32.8576098,210.003878 32.8576098,214.691786 L32.8576098,227.622093 C32.8576098,232.314674 36.6894157,236.110649 41.4053631,236.110649 L69.0774117,236.110649 C71.1693535,236.110649 73,238.826956 73,240.913067 L73,251.518116 C73,253.594879 71.2996065,255.289942 69.20056,255.289942 L41.4156254,255.319543 C36.6996781,255.319543 32.8678722,259.472291 32.8678722,264.597208 L32.8473475,276.188446 C32.8473475,277.491681 33.3620441,279.028611 34.3345997,279.994547 L14.2101193,280" id="Fill-3" fill="#0083B6"></path>
            <path d="M131.994385,185 C126.973734,185 123.959244,189.031201 124.000416,191.765292 L124.000416,228 L139.431311,228 L139.431311,213.57863 L153.195921,213.583318 L153.195921,202.000745 L139.369955,201.991368 L139.369955,196.538034 L154,196.538034 L154,185.004688 L131.994385,185" id="Fill-4" fill="#1A1919"></path>
            <path d="M189.411329,208.130504 C189.044425,212.63959 185.195105,216.192345 180.496029,216.192345 C175.80013,216.192345 171.950016,212.63959 171.588671,208.130504 L171.583906,208.130504 C171.566434,207.921381 171.55611,207.711474 171.55611,207.49765 C171.55611,202.658823 175.562674,198.737947 180.496029,198.737947 C185.437326,198.737947 189.436742,202.658823 189.436742,207.49765 C189.436742,207.711474 189.426418,207.921381 189.411329,208.130504 Z M202.06,196.774376 L202.014733,196.774376 C197.858865,189.753455 189.782998,185 180.496029,185 C171.214619,185 163.138752,189.753455 158.980502,196.774376 L158.937618,196.774376 C157.061005,199.96371 156,203.615936 156,207.49765 C156,207.731838 156,207.955843 156.00953,208.200212 L156.015089,208.200212 C156.449498,220.303547 167.246175,230 180.496029,230 C193.751442,230 204.543355,220.303547 204.982528,208.19003 L204.99047,208.19003 C204.995235,207.955843 205,207.731838 205,207.49765 C205,203.615936 203.93423,199.96371 202.06,196.774376 Z" id="Fill-5" fill="#1A1919"></path>
            <path d="M226.677759,203.3522 C225.350229,203.964175 224.234448,204.520657 222.452167,207.181144 L222.402941,207.181144 C222.285737,207.349965 222.169315,207.528946 222.052111,207.722777 C221.95991,207.872058 221.863022,207.588345 221.853645,207.200683 C221.853645,207.150663 221.853645,207.106113 221.858334,207.051402 L221.858334,197.330934 C221.858334,196.754131 222.034921,196.431339 222.917076,196.431339 L225.472121,196.431339 C229.150762,196.431339 230.519704,201.492829 226.677759,203.3522 Z M236.920602,212.391915 C236.686194,211.800262 235.834512,211.164058 237.322221,210.293382 C238.702102,209.632168 240.104642,208.538743 241.217298,207.250704 L241.282932,207.250704 C242.062729,206.330789 242.708914,205.321773 243.096468,204.307287 C244.091139,201.129396 244.339611,198.289929 243.991906,195.849065 L243.981748,195.849065 C242.957386,188.893033 237.168293,185 230.102458,185 L214.578406,185.024229 C209.794142,185.024229 207,189.076704 207,192.741516 L207,227.995311 L221.82161,227.995311 L221.82161,215.529945 L221.825516,213.908174 C224.025825,218.214661 228.439725,226.791683 229.334382,228 L246,228 C243.892673,223.867804 239.765532,217.343985 236.920602,212.391915 Z" id="Fill-6" fill="#1A1919"></path>
            <path d="M277,195.85666 L277,185.004688 L256.977223,185 C248.762564,185 246.924466,190.20954 247.002338,192.560749 L247.002338,207.255606 L247.007205,220.0509 C247.007205,221.273778 246.945556,222.243485 247.441177,223.327276 C248.66928,226.305161 251.868511,227.974995 254.572933,228 L276.985399,228 L276.985399,216.591677 L262.587235,216.576831 L262.587235,211.9338 L275.844902,211.92833 L275.844902,200.464528 L262.57669,200.455152 L262.571012,196.130147 L277,196.130147 L277,195.85666" id="Fill-7" fill="#1A1919"></path>
            <path d="M311.332256,193.349395 C311.27253,193.596757 310.832449,194.952582 310.242267,196.749458 L310.221835,196.749458 C309.032042,200.391439 307.242638,205.815517 306.782124,207.780413 C306.772694,207.789747 306.772694,207.794415 306.772694,207.804527 L306.642241,207.804527 C306.562869,207.903316 306.482711,207.903316 306.408054,207.814639 L306.282317,207.814639 C306.276816,207.79986 306.272886,207.79986 306.268171,207.789747 C305.712568,205.790625 303.973459,200.391439 302.772664,196.739346 L302.723155,196.739346 C302.168337,195.042037 301.72747,193.74533 301.597803,193.389066 C298.123514,181.735039 280,181.735039 280,196.709787 L280,228.534725 L294.224074,228.534725 L294.213858,209.932775 C294.194211,208.823535 294.508555,209.94211 294.508555,209.94211 C295.063373,211.619972 297.908188,220.206086 299.56321,224.570707 C301.483067,230.44517 311.513004,230.519068 313.497301,224.53648 C315.17197,219.627352 316.97159,214.733002 318.452151,209.882992 C318.721702,208.98222 318.750778,209.848766 318.750778,209.848766 L318.742134,228.534725 C321.041562,228.534725 329.715889,228.549504 333,228.544837 L333,196.580661 C333,181.798824 314.59672,181.665031 311.332256,193.349395" id="Fill-8" fill="#1A1919"></path>
            <path d="M360.499603,216.052326 C355.892793,216.052326 352.114717,212.582382 351.761018,208.168077 C351.751501,207.944084 351.741192,207.720871 351.741192,207.502341 C351.741192,202.770387 355.656465,198.937528 360.499603,198.937528 C365.333225,198.937528 369.258808,202.770387 369.258808,207.502341 C369.258808,207.720871 369.248499,207.944084 369.233431,208.168077 C368.885283,212.582382 365.106414,216.052326 360.499603,216.052326 M382.033211,196.777984 L382.033211,196.772521 C377.895884,189.756929 369.802839,185 360.499603,185 C351.197161,185 343.103323,189.756929 338.966789,196.772521 L338.95648,196.772521 C337.069027,199.960717 336,203.610167 336,207.502341 C336,207.720871 336,207.944084 336.015068,208.168077 C336.403661,220.283222 347.216065,230 360.499603,230 C373.779177,230 384.596339,220.283222 384.98969,208.168077 C385,207.944084 385,207.716189 385,207.502341 C385,203.610167 383.930179,199.960717 382.033211,196.777984" id="Fill-9" fill="#1A1919"></path>
            <path d="M417.236238,207.373966 L417.296466,207.373966 C415.34063,204.293897 411.543867,201.553012 404.657232,200.137527 C400.38102,199.260977 401.904163,196.833425 403.240281,196.006224 L403.376587,195.936508 C403.577877,195.832324 403.754599,195.762608 403.915472,195.732058 C405.322914,195.328641 407.530758,195.508024 409.935929,196.011708 L410.217259,196.011708 C412.733377,196.549858 415.396103,197.491426 417.427225,198.722826 L417.427225,186.742518 C409.966043,182.805482 388.12059,181.086064 386.14415,195.946691 L386.133847,195.946691 C385.922256,197.626159 385.95237,199.52026 386.289966,201.643095 C386.799529,203.989963 387.95417,205.829231 389.371121,207.229049 L389.360818,207.229049 C389.38063,207.258816 389.411537,207.283882 389.441651,207.308949 C389.461463,207.329316 389.481275,207.353599 389.497125,207.373966 L389.516937,207.373966 C391.730328,209.431784 394.543626,210.513568 396.701544,210.906802 C405.902215,212.556503 403.325869,218.013207 396.983666,217.380273 C392.40552,216.608689 390.893471,215.606805 386.673525,213.65317 L386.673525,226.032196 C389.032733,227.03878 391.770745,228.220047 394.341544,228.573331 C403.26564,229.630048 413.394304,229.330815 417.573833,220.450158 C418.633377,218.212957 420.32611,212.387303 417.236238,207.373966" id="Fill-10" fill="#1A1919"></path>
            <path d="M420.014968,185 L420,195.844225 L420,198.170722 L429.567645,198.145722 L429.567645,227.990972 C434.22818,228.011284 439.976645,227.990972 444.562339,227.990972 L444.552886,207.181404 L444.552886,198.145722 L453.995273,198.170722 L453.995273,195.914535 L454,185 L420.014968,185" id="Fill-11" fill="#1A1919"></path>
            <path d="M461,186 L462.06637,186 C462.453467,186 462.948832,186.037253 463,186.41851 C463,187 462.292547,187 461.952911,187 L461,187 L461,186" id="Fill-12" fill="#1A1919"></path>
            <path d="M461,185 L461,190 L461.653378,190 L461.653378,187.994838 L462.426351,187.994838 C463.088514,188.068708 463.208784,188.284087 463.234459,189.070844 C463.252027,189.699181 463.282432,189.852261 463.350676,190 L464,190 C463.913514,189.789961 463.913514,189.688501 463.879054,188.844785 C463.862162,188.204877 463.767568,187.785689 463.234459,187.59879 C463.759459,187.41189 463.947973,186.908152 463.947973,186.364365 C463.947973,185 462.839189,185 462.603378,185 L461,185" id="Fill-13" fill="#1A1919"></path>
            <path d="M13.2974997,184 L95.7032817,184 C101.38687,184 106,188.608547 106,194.300078 L106,276.699922 C106,282.391453 101.38687,287 95.7032817,287 L13.2974997,287 C7.6100044,287 3,282.391453 3,276.699922 L3,194.300078 C3,188.608547 7.6100044,184 13.2974997,184" id="Fill-14" fill="#1A1919"></path>
            <path d="M97.8400089,279.995326 L42.873547,279.995326 C40.7736976,279.995326 39.0734434,278.301114 39.0734434,276.219765 L39.0734434,264.440512 C39.0734434,262.349036 40.7736976,260.668845 42.873547,260.668845 L70.5514425,260.668845 C75.2691938,260.668845 79.1024654,256.857453 79.1024654,252.169743 L79.1024654,239.345142 C79.1024654,234.65198 75.2691938,230.846039 70.5514425,230.846039 L42.7961551,230.841366 C40.697885,230.841366 39,229.151048 39,227.059573 L39,215.290446 C39,213.203644 40.703413,211.519558 42.8008934,211.519558 L70.6920115,211.504758 C75.4145011,211.504758 79.2359271,207.361534 79.2359271,202.23216 L79.2359271,191.875267 C79.2359271,190.572087 78.6649638,188.971348 77.7283631,188.010126 L97.8052615,188 C100.679031,188 103,190.304128 103,193.139499 L102.984995,274.865953 C102.984995,277.701324 100.638755,280 97.7673552,280 L97.8400089,279.995326" id="Fill-15" fill="#0083B8"></path>
            <path d="M14.2101193,280 C11.3303443,280 9,277.694995 9,274.85483 L9,193.124916 C9,190.280078 11.3303443,188 14.2006463,188 L69.1808247,188 C71.2767136,188 72.9747388,189.68961 72.9747388,191.766373 L72.9747388,202.42595 C72.9747388,204.51284 71.2767136,206.203229 69.1808247,206.203229 L41.4053631,206.203229 C36.6894157,206.203229 32.8576098,210.003878 32.8576098,214.691786 L32.8576098,227.622093 C32.8576098,232.314674 36.6894157,236.110649 41.4053631,236.110649 L69.0774117,236.110649 C71.1693535,236.110649 73,238.826956 73,240.913067 L73,251.518116 C73,253.594879 71.2996065,255.289942 69.20056,255.289942 L41.4156254,255.319543 C36.6996781,255.319543 32.8678722,259.472291 32.8678722,264.597208 L32.8473475,276.188446 C32.8473475,277.491681 33.3620441,279.028611 34.3345997,279.994547 L14.2101193,280" id="Fill-16" fill="#FFFFFE"></path>
            <path d="M459,188.002871 C459,185.789808 460.790605,184 463.000409,184 C465.208576,184 467,185.789808 467,188.002871 C467,190.210192 465.208576,192 463.000409,192 C460.790605,192 459,190.210192 459,188.002871 Z" id="Stroke-17" stroke="#1A1919" stroke-width="0.17"></path>
            <path d="M114,186 L115.063968,186 C115.452837,186 115.949404,186.042673 116,186.421112 C116,187 115.289483,187 114.954102,187 L114,187 L114,186" id="Fill-18" fill="#1A1919"></path>
            <path d="M112,186 L112,191 L112.652345,191 L112.652345,188.992391 L113.430951,188.992391 C114.0879,189.069341 114.206927,189.28895 114.231916,190.069687 C114.250986,190.702577 114.280579,190.851288 114.345024,191 L115,191 C114.913854,190.790766 114.913854,190.697389 114.880316,189.84489 C114.861903,189.200761 114.767865,188.788345 114.240465,188.596403 C114.759316,188.414837 114.951995,187.914231 114.951995,187.358292 C114.951995,186 113.842613,186 113.606532,186 L112,186" id="Fill-19" fill="#1A1919"></path>
            <path d="M110,188.000394 C110,185.797061 111.787251,184 114,184 C116.207223,184 118,185.797061 118,188.000394 C118,190.213194 116.207223,192 114,192 C111.787251,192 110,190.213194 110,188.000394 Z" id="Stroke-20" stroke="#1A1919" stroke-width="0.176"></path>
            <polygon id="Fill-21" fill="#1A1919" points="124 282 129 282 129 263 124 263"></polygon>
            <polyline id="Fill-22" fill="#1A1919" points="148.172446 263 152 263 152 282 147.89939 282 139.88788 268.448433 139.832316 268.448433 139.832316 282 136 282 136 263 140.322072 263 148.116882 276.22357 148.172446 276.22357 148.172446 263"></polyline>
            <path d="M162.90889,276.65745 C162.934078,277.71275 163.477198,279.72043 167.030305,279.72043 C168.953264,279.72043 171.095833,279.267281 171.095833,277.263441 C171.095833,275.778034 169.631771,275.38172 167.568702,274.907834 L165.482806,274.429339 C162.33822,273.710445 159.298322,273.026882 159.298322,268.848694 C159.298322,266.728111 160.467998,263 166.78472,263 C172.748807,263 174.349043,266.806452 174.373444,269.137481 L170.472426,269.137481 C170.365376,268.292627 170.034781,266.278802 166.486397,266.278802 C164.939686,266.278802 163.093865,266.835637 163.093865,268.550691 C163.093865,270.036866 164.343828,270.354071 165.159296,270.544547 L169.901756,271.678187 C172.558321,272.308756 175,273.364055 175,276.784178 C175,282.496928 169.035913,283 167.32784,283 C160.227136,283 159,279.00768 159,276.65745 L162.90889,276.65745" id="Fill-23" fill="#1A1919"></path>
            <path d="M198,275.675513 C198,280.80604 194.848606,283 189.848406,283 C188.024464,283 185.317425,282.563728 183.546421,280.630429 C182.470022,279.437374 182.056146,277.869473 182,275.910974 L182,263 L186.227792,263 L186.227792,275.645588 C186.227792,278.355357 187.829557,279.548411 189.764187,279.548411 C192.61159,279.548411 193.772208,278.195496 193.772208,275.835374 L193.772208,263 L198,263 L198,275.675513" id="Fill-24" fill="#1A1919"></path>
            <path d="M213.598145,271.361229 L208.912674,271.361229 L208.912674,266.273823 L213.891036,266.273823 C216.231066,266.273823 216.686244,267.75941 216.686244,268.766444 C216.686244,270.647625 215.673879,271.361229 213.598145,271.361229 Z M220.149923,277.709157 C220.149923,274.165717 219.294436,273.580392 217.723338,272.895977 C219.616692,272.255347 220.678516,270.461734 220.678516,268.37546 C220.678516,266.728563 219.746522,263 214.667697,263 L205,263 L205,282 L208.912674,282 L208.912674,274.562078 L213.040185,274.562078 C215.995363,274.562078 216.153014,275.563736 216.153014,278.159288 C216.153014,280.118051 216.31221,281.095897 216.580371,282 L221,282 L221,281.49149 C220.149923,281.178856 220.149923,280.485223 220.149923,277.709157 Z" id="Fill-25" fill="#1A1919"></path>
            <path d="M234.545385,274.803007 L236.980075,267.284253 L237.029888,267.284253 L239.379513,274.803007 L234.545385,274.803007 Z M239.330467,263 L234.755364,263 L228,282 L232.168937,282 L233.492422,278.082047 L240.486121,278.082047 L241.700017,282 L246,282 L239.330467,263 Z" id="Fill-26" fill="#1A1919"></path>
            <polyline id="Fill-27" fill="#1A1919" points="265.176106 263 269 263 269 282 264.897354 282 256.884251 268.448433 256.829454 268.448433 256.829454 282 253 282 253 263 257.319452 263 265.115749 276.22357 265.176106 276.22357 265.176106 263"></polyline>
            <path d="M290.020374,269.717346 C289.696388,268.583967 289.091614,266.4393 285.793901,266.4393 C283.880842,266.4393 281.062937,267.714735 281.062937,273.073716 C281.062937,276.487676 282.417506,279.551486 285.793901,279.551486 C287.997777,279.551486 289.533624,278.319819 290.020374,275.984719 L294,275.984719 C293.204692,280.1128 290.496325,283 285.711362,283 C280.637127,283 277,279.585272 277,273.019965 C277,266.385549 280.847718,263 285.764588,263 C291.476767,263 293.793266,266.923059 294,269.717346 L290.020374,269.717346" id="Fill-28" fill="#1A1919"></path>
            <polyline id="Fill-29" fill="#1A1919" points="315.531974 266.357596 305.049305 266.357596 305.049305 270.355979 314.678984 270.355979 314.678984 273.718953 305.049305 273.718953 305.049305 278.641635 316 278.641635 316 282 301 282 301 263 315.531974 263 315.531974 266.357596"></polyline>
            <path d="M344.929176,272.258282 L353,272.258282 L353,282.492439 L350.311288,282.492439 L349.908996,280.112813 C348.884911,281.280742 347.404635,283 343.875407,283 C339.22445,283 335,279.712753 335,273.049187 C335,267.871447 337.932431,262.976283 344.442521,263.000086 C350.361281,263.000086 352.701601,266.776466 352.920323,269.410256 L348.884911,269.410256 C348.884911,268.662352 347.513214,266.282726 344.660461,266.282726 C341.783492,266.282726 339.114308,268.236952 339.114308,273.102938 C339.114308,278.286053 341.997526,279.634431 344.740138,279.634431 C345.624398,279.634431 348.59198,279.296568 349.426247,275.457224 L344.929176,275.457224 L344.929176,272.258282" id="Fill-30" fill="#1A1919"></path>
            <path d="M369.599749,271.361229 L364.908415,271.361229 L364.908415,266.273823 L369.894213,266.273823 C372.23447,266.273823 372.687373,267.75941 372.687373,268.766444 C372.687373,270.647625 371.674911,271.361229 369.599749,271.361229 Z M376.149068,277.709157 C376.149068,274.165717 375.293498,273.580392 373.71993,272.895977 C375.608057,272.255347 376.679258,270.461734 376.679258,268.37546 C376.679258,266.728563 375.755676,263 370.661675,263 L361,263 L361,282 L364.908415,282 L364.908415,274.562078 L369.039416,274.562078 C371.98947,274.562078 372.151,275.563736 372.151,278.159288 C372.151,280.118051 372.314076,281.095897 372.579171,282 L377,282 L377,281.49149 C376.149068,281.178856 376.149068,280.485223 376.149068,277.709157 Z" id="Fill-31" fill="#1A1919"></path>
            <path d="M393.000379,279.638249 C390.88888,279.638249 387.911726,278.31874 387.911726,272.996928 C387.911726,267.685868 390.88888,266.361751 393.000379,266.361751 C395.110363,266.361751 398.088274,267.685868 398.088274,272.996928 C398.088274,278.31874 395.110363,279.638249 393.000379,279.638249 Z M393.000379,263 C390.523836,263 384,264.079877 384,272.996928 C384,281.914747 390.523836,283 393.000379,283 C395.476164,283 402,281.914747 402,272.996928 C402,264.079877 395.476164,263 393.000379,263 Z" id="Fill-32" fill="#1A1919"></path>
            <path d="M426,275.675513 C426,280.80604 422.851183,283 417.849178,283 C416.022463,283 413.322102,282.563728 411.541115,280.630429 C410.459687,279.437374 410.050542,277.869473 410,275.910974 L410,263 L414.225431,263 L414.225431,275.645588 C414.225431,278.355357 415.828319,279.548411 417.762535,279.548411 C420.604894,279.548411 421.769755,278.195496 421.769755,275.835374 L421.769755,263 L426,263 L426,275.675513" id="Fill-33" fill="#1A1919"></path>
            <path d="M441.867039,271.861135 L438.086815,271.861135 L438.086815,266.274617 L441.324975,266.274617 C443.858294,266.274617 444.913976,267.042177 444.913976,268.904606 C444.913976,269.745158 444.913976,271.861135 441.867039,271.861135 Z M442.932993,263 L434,263 L434,282 L438.086815,282 L438.086815,275.146508 L442.767055,275.146508 C448.020176,275.146508 449,270.800841 449,269.090541 C449,265.351086 446.713217,263 442.932993,263 Z" id="Fill-34" fill="#1A1919"></path>
        </g>
    </g>
</svg>