<?xml version="1.0" encoding="UTF-8"?>
<svg width="595px" height="458px" viewBox="0 0 595 458" version="1.1" xmlns="http://www.w3.org/2000/svg" xmlns:xlink="http://www.w3.org/1999/xlink">
    <!-- Generator: Sketch 48.2 (47327) - http://www.bohemiancoding.com/sketch -->
    <title>mercury-insurance-seeklogo.com</title>
    <desc>Created with Sketch.</desc>
    <defs></defs>
    <g id="Page-1" stroke="none" stroke-width="1" fill="none" fill-rule="evenodd">
        <g id="mercury-insurance-seeklogo.com">
            <path d="M16.5849967,421.317143 L20.4693466,421.317143 L37.7841302,457.577143 L32.1223961,457.577143 L26.990346,446.9 L10.5112861,446.9 L5.68527567,457.577143 L0,457.577143 L16.5849967,421.317143 Z M24.7774437,442.295556 L18.5036301,429.233968 L12.6535639,442.295556 L24.7774437,442.295556 Z M71.1659973,421.528571 L76.7217947,421.528571 L76.7217947,441.990159 C76.7217947,444.762222 76.5099211,446.853016 76.0744031,448.26254 C75.638885,449.68381 75.109201,450.858413 74.4618093,451.786349 C73.8261885,452.726032 73.0493185,453.571746 72.1311994,454.3 C69.0590318,456.766667 65.0569744,458 60.1132564,458 C55.0871432,458 51.0380027,456.778413 48.0011474,454.335238 C47.0712576,453.571746 46.2943876,452.726032 45.6587667,451.786349 C45.0231459,450.858413 44.5052325,449.695556 44.0814853,448.344762 C43.6695088,446.982222 43.4576352,444.85619 43.4576352,441.943175 L43.4576352,421.528571 L49.0134325,421.528571 L49.0134325,441.990159 C49.0134325,445.384762 49.425409,447.745714 50.2611328,449.06127 C51.0850858,450.388571 52.3563275,451.45746 54.0513165,452.25619 C55.7580763,453.054921 57.759105,453.454286 60.0661734,453.454286 C63.3502146,453.454286 66.0339473,452.655556 68.1056005,451.058095 C69.1885102,450.188889 69.9653801,449.17873 70.4479812,448.004127 C70.9305822,446.829524 71.1659973,444.832698 71.1659973,441.990159 L71.1659973,421.528571 Z M84.4316406,421.528571 L116.730598,421.528571 L116.730598,426.12127 L103.24131,426.12127 L103.24131,457.577143 L97.6972838,457.577143 L97.6972838,426.12127 L84.4316406,426.12127 L84.4316406,421.528571 Z M152.549012,421.528571 L158.093038,421.528571 L158.093038,457.577143 L152.549012,457.577143 L152.549012,441.872698 L130.843736,441.872698 L130.843736,457.577143 L125.287938,457.577143 L125.287938,421.528571 L130.843736,421.528571 L130.843736,437.115556 L152.549012,437.115556 L152.549012,421.528571 Z M188.90888,421 C194.888425,421 199.855685,422.761905 203.82243,426.285714 C207.800946,429.809524 209.778433,434.249524 209.778433,439.55873 C209.778433,444.879683 207.777404,449.284444 203.775347,452.76127 C199.761519,456.249841 194.711864,458 188.614612,458 C182.788087,458 177.938535,456.249841 174.065956,452.76127 C170.181606,449.284444 168.239431,444.914921 168.239431,439.664444 C168.239431,434.273016 170.205147,429.809524 174.101268,426.285714 C178.009159,422.761905 182.952877,421 188.90888,421 Z M189.120754,425.909841 C184.70672,425.909841 181.081327,427.190159 178.232804,429.774286 C175.396051,432.358413 173.97179,435.659048 173.97179,439.664444 C173.97179,443.552381 175.396051,446.794286 178.244575,449.366667 C181.093098,451.950794 184.671408,453.242857 188.955964,453.242857 C193.264061,453.242857 196.854142,451.927302 199.737977,449.29619 C202.621812,446.653333 204.057845,443.37619 204.057845,439.464762 C204.057845,435.635556 202.621812,432.428889 199.737977,429.82127 C196.854142,427.213651 193.311144,425.909841 189.120754,425.909841 Z M220.101387,457.577143 L220.101387,421.528571 L229.78872,421.528571 C233.696611,421.528571 236.804091,422.42127 239.087618,424.230159 C241.394686,426.039048 242.548221,428.470476 242.548221,431.559683 C242.548221,433.650476 241.971453,435.471111 240.853232,436.998095 C239.723239,438.525079 238.122416,439.67619 236.01545,440.427937 C237.25138,441.191429 238.463768,442.225079 239.640844,443.528889 C240.817919,444.832698 242.489367,447.123175 244.631645,450.365079 C245.973511,452.420635 247.04465,453.959365 247.856832,454.993016 L249.904944,457.577143 L243.325091,457.577143 L241.630101,455.192698 C241.583018,455.110476 241.477082,454.969524 241.30052,454.758095 L240.229381,453.336825 L238.522622,450.705714 L236.662842,447.886667 C235.532849,446.406667 234.473481,445.220317 233.52005,444.351111 C232.578389,443.470159 231.719124,442.847619 230.954025,442.46 C230.188926,442.072381 228.905913,441.872698 227.093216,441.872698 L225.657184,441.872698 L225.657184,457.577143 L220.101387,457.577143 Z M227.316861,425.909841 L225.657184,425.909841 L225.657184,437.28 L227.752379,437.28 C230.553819,437.28 232.472452,437.056825 233.52005,436.610476 C234.567647,436.152381 235.368059,435.482857 235.944826,434.578413 C236.533364,433.685714 236.815862,432.652063 236.815862,431.500952 C236.815862,430.373333 236.498051,429.339683 235.862431,428.423492 C235.203268,427.507302 234.29692,426.849524 233.131615,426.473651 C231.96631,426.097778 230.012364,425.909841 227.316861,425.909841 Z M257.555936,457.577143 L263.111733,457.577143 L263.111733,421.528571 L257.555936,421.528571 L257.555936,457.577143 Z M273.034481,421.528571 L306.357495,421.528571 L281.662446,452.972698 L306.357495,452.972698 L306.357495,457.577143 L271.445429,457.577143 L296.093395,426.12127 L273.034481,426.12127 L273.034481,421.528571 Z M314.961918,421.528571 L336.890839,421.528571 L336.890839,426.12127 L320.517715,426.12127 L320.517715,437.115556 L336.325842,437.115556 L336.325842,441.72 L320.517715,441.72 L320.517715,452.972698 L337.408752,452.972698 L337.408752,457.577143 L314.961918,457.577143 L314.961918,421.528571 Z M346.648796,457.577143 L346.648796,421.528571 L359.702566,421.528571 C364.964094,421.528571 369.130942,422.268571 372.20311,423.736825 C375.263507,425.205079 377.700053,427.378095 379.51275,430.232381 C381.325447,433.098413 382.231795,436.211111 382.231795,439.582222 C382.231795,442.001905 381.725652,444.304127 380.736909,446.512381 C379.736394,448.720635 378.312133,450.65873 376.475895,452.326667 C374.580803,454.053333 372.391442,455.357143 369.896041,456.226349 C368.448238,456.766667 367.106372,457.130794 365.882213,457.306984 C364.669825,457.483175 362.327445,457.577143 358.890384,457.577143 L346.648796,457.577143 Z M359.125799,426.12127 L352.192823,426.12127 L352.192823,452.972698 L359.290589,452.972698 C362.068488,452.972698 364.222537,452.796508 365.752735,452.444127 C367.282933,452.091746 368.565946,451.645397 369.590002,451.105079 C370.614058,450.564762 371.555718,449.895238 372.414983,449.096508 C375.134028,446.524127 376.511207,443.246984 376.511207,439.300317 C376.511207,435.424127 375.098716,432.264444 372.297276,429.82127 C371.261449,428.905079 370.072603,428.153333 368.730737,427.566032 C367.400641,426.990476 366.117628,426.591111 364.917011,426.403175 C363.716394,426.215238 361.797761,426.12127 359.125799,426.12127 Z M414.895646,421.317143 L418.779996,421.317143 L436.10655,457.577143 L430.433045,457.577143 L425.300995,446.9 L408.821935,446.9 L403.995925,457.577143 L398.310649,457.577143 L414.895646,421.317143 Z M423.088093,442.295556 L416.802508,429.233968 L410.964213,442.295556 L423.088093,442.295556 Z M462.343568,439.817143 L475.314942,439.817143 L475.314942,455.110476 C470.559556,457.036825 465.839482,458 461.154721,458 C454.7632,458 449.642921,456.249841 445.817425,452.76127 C441.991929,449.272698 440.073295,444.961905 440.073295,439.852381 C440.073295,434.449206 442.050782,429.962222 446.017528,426.367937 C449.984273,422.785397 454.939761,421 460.919306,421 C463.096896,421 465.156779,421.223175 467.110724,421.657778 C469.06467,422.092381 471.536529,422.891111 474.526301,424.065714 L474.526301,429.351429 C469.912164,426.849524 465.345111,425.592698 460.813369,425.592698 C456.587667,425.592698 453.032899,426.943492 450.137293,429.633333 C447.241686,432.323175 445.793883,435.62381 445.793883,439.535238 C445.793883,443.634603 447.241686,446.993968 450.137293,449.601587 C453.032899,452.19746 456.752458,453.50127 461.29597,453.50127 C463.508873,453.50127 466.157293,453.031429 469.229461,452.091746 L469.759145,451.927302 L469.759145,444.409841 L462.343568,444.409841 L462.343568,439.817143 Z M486.720806,421.528571 L508.649726,421.528571 L508.649726,426.12127 L492.264832,426.12127 L492.264832,437.115556 L508.08473,437.115556 L508.08473,441.72 L492.264832,441.72 L492.264832,452.972698 L509.155869,452.972698 L509.155869,457.577143 L486.720806,457.577143 L486.720806,421.528571 Z M549.105818,421.528571 L554.379117,421.528571 L554.379117,457.577143 L549.611961,457.577143 L523.775149,429.809524 L523.775149,457.577143 L518.572474,457.577143 L518.572474,421.528571 L523.057133,421.528571 L549.105818,449.519365 L549.105818,421.528571 Z M562.701043,421.528571 L595,421.528571 L595,426.12127 L581.510712,426.12127 L581.510712,457.577143 L575.954915,457.577143 L575.954915,426.12127 L562.701043,426.12127 L562.701043,421.528571 Z" id="Fill-1" fill="#1A1919"></path>
            <polyline id="Fill-2" fill="#1A1919" points="5 283.810491 23.0724863 283.810491 23.0724863 229.492386 45.7567339 265.333333 69.5529544 229.125212 69.5529544 284 88 284 88 200.189509 67.7152729 200.189509 46.8687068 236.208122 24.7345931 200 5.17557467 200 5 283.810491"></polyline>
            <polyline id="Fill-3" fill="#1A1919" points="122.367141 216.379105 122.367141 233.145951 161.364895 233.145951 161.364895 249.525057 122.367141 249.525057 122.367141 266.620895 167 266.620895 167 283 104 283 104 200 167 200 167 216.379105 122.367141 216.379105"></polyline>
            <path d="M181,200 L223.419971,200 C254.28047,200.401857 260.894273,242.998734 232.888399,253.896159 L253,284 L231.701909,284 L213.787078,256.791895 L199.243759,256.791895 L199.243759,283.491769 L181.328928,283.491769 L181,200 Z M199.091043,216.145209 L219.543319,216.145209 C226.239354,216.145209 231.713656,221.653018 231.713656,228.390038 C231.713656,235.127058 226.239354,240.634867 219.543319,240.634867 L199.091043,240.634867 L199.091043,216.145209 Z" id="Fill-4" fill="#1A1919"></path>
            <path d="M304.856573,198 C317.376898,198 328.657003,203.200323 336.653474,211.527868 L325.231631,224.411551 C320.400675,218.883279 313.266452,215.392973 305.317227,215.392973 C290.777113,215.392973 278.989109,227.081987 278.989109,241.5 C278.989109,255.918013 290.777113,267.607027 305.317227,267.607027 C313.431815,267.607027 320.695966,263.964459 325.526921,258.237076 L338,269.996365 C329.956282,279.19063 318.097408,285 304.856573,285 C280.642737,285 261,265.522213 261,241.5 C261,217.477787 280.642737,198 304.856573,198" id="Fill-5" fill="#1A1919"></path>
            <path d="M436,200 L478.419971,200 C509.28047,200.401857 515.906021,242.998734 487.876652,253.896159 L508,284 L486.701909,284 L468.787078,256.791895 L454.243759,256.791895 L454.243759,283.491769 L436.328928,283.491769 L436,200 Z M454.091043,216.145209 L474.543319,216.145209 C481.239354,216.145209 486.713656,221.653018 486.713656,228.390038 C486.713656,235.127058 481.239354,240.634867 474.543319,240.634867 L454.091043,240.634867 L454.091043,216.145209 Z" id="Fill-6" fill="#1A1919"></path>
            <polyline id="Fill-7" fill="#1A1919" points="508 200 529.810261 200 549.399541 234.144225 569.623388 200 590 200 558.154199 250.009577 558.154199 284 539.998567 284 539.998567 250.175211 508 200"></polyline>
            <path d="M421,200 L421,252.788355 C421,270.506531 406.496924,285 388.778821,285 L380.232999,285 C362.503076,285 348,270.506531 348,252.788355 L348,200 L366.025421,200 L366.025421,252.788355 C366.025421,260.596165 372.420013,266.98652 380.232999,266.98652 L388.778821,266.98652 C396.591807,266.98652 402.986399,260.596165 402.986399,252.788355 L402.986399,200 L421,200" id="Fill-8" fill="#1A1919"></path>
            <polygon id="Fill-9" fill="#1A1919" points="5 368 17 368 17 299 5 299"></polygon>
            <polyline id="Fill-10" fill="#1A1919" points="34 367.705279 46.1174168 367.705279 45.8238748 318.604818 83.5851272 368 94 368 94 299.141466 81.553816 299.141466 81.553816 346.638647 45.0958904 299 34.2465753 299 34 367.705279"></polyline>
            <path d="M150.668134,315.849458 L157.32033,306.509972 C136.652277,291.149599 106.071146,296.542323 109.071157,323.020002 C110.861676,331.269091 121.237205,336.436624 136.332118,339.909301 C162.099002,345.77611 139.770864,371.376731 113.292515,349.367308 L106,358.07863 C123.703617,373.841976 155.423091,373.593081 159.881604,350.398444 C161.351964,336.199581 148.960618,329.953503 131.980324,326.350453 C113.351803,322.865924 119.588978,304.874377 137.233306,309.070034 C142.296564,310.302656 146.968517,312.234555 150.668134,315.849458" id="Fill-11" fill="#1A1919"></path>
            <path d="M229,299 L229,343.540074 C229,357.542442 217.703421,369 203.897787,369 L196.113883,369 C182.308249,369 171,357.542442 171,343.540074 L171,299 L183.078471,299 L183.078471,343.540074 C183.078471,350.807575 188.948491,356.749408 196.113883,356.749408 L203.897787,356.749408 C211.063179,356.749408 216.933199,350.807575 216.933199,343.540074 L216.933199,299 L229,299" id="Fill-12" fill="#1A1919"></path>
            <polyline id="Fill-13" fill="#1A1919" points="392 367.705279 404.117417 367.705279 403.823875 318.604818 441.585127 368 452 368 452 299.141466 439.553816 299.141466 439.553816 346.638647 403.09589 299 392.246575 299 392 367.705279"></polyline>
            <path d="M246.000522,299.031188 L246,368 L258.031954,368 L258.031954,343.877961 L272.995022,343.877961 L290.268219,368 L304,368 L285.800406,342.020611 C307.236526,336.037123 309.640467,301.523328 279.163183,299.336828 C279.163183,299.336828 245.848077,298.878368 246.000522,299.031188 Z M258.043681,310.163532 L278.576856,310.163532 C284.83883,310.163532 289.963329,315.300633 289.963329,321.578006 C289.963329,327.855379 284.83883,332.992479 278.576856,332.992479 L258.043681,332.992479 L258.043681,310.163532 Z" id="Fill-14" fill="#1A1919"></path>
            <path d="M310,368.562204 L322.143301,368.562204 L329.51644,351.429006 L361.753313,351.429006 L368.843776,369 L382,369 L351.058727,299 L339.928349,299 C339.928349,299 310.294454,368.562204 310,368.562204 Z M334.003926,340.969236 L357.418943,340.969236 L345.41698,313.376268 L334.003926,340.969236 Z" id="Fill-15" fill="#1A1919"></path>
            <polyline id="Fill-16" fill="#1A1919" points="541 299 591 299 591 310.045176 552.948658 310.045176 552.948658 327.983294 587.394399 327.983294 587.394399 339.016706 552.948658 339.016706 552.948658 356.954824 591 356.954824 591 368 541 368 541 299"></polyline>
            <path d="M501.602029,298 C511.652198,298 520.767193,301.932599 527.384442,308.29346 L519.77283,317.035202 C515.286359,312.083917 508.811161,308.968635 501.602029,308.968635 C488.059752,308.968635 477.086246,319.960961 477.086246,333.5 C477.086246,347.050884 488.059752,358.031365 501.602029,358.031365 C509.059752,358.031365 515.748027,354.70287 520.246336,349.44361 L528,358.102436 C521.347238,364.818652 511.971815,369 501.602029,369 C481.383315,369 465,353.10377 465,333.5 C465,313.89623 481.383315,298 501.602029,298" id="Fill-17" fill="#1A1919"></path>
            <path d="M138.997958,168.001296 L303.04252,167.999994 L575,0 C575,0 137.906156,168.541474 138.997958,168.001296" id="Fill-18" fill="#981D23"></path>
            <path d="M359,169 L590,169 L590,0 C590,0 359,167.902291 359,169" id="Fill-19" fill="#981D23"></path>
            <polygon id="Fill-20" fill="#1A1919" points="3 395.832 592 395.832 592 393 3 393"></polygon>
        </g>
    </g>
</svg>