<?xml version="1.0" encoding="UTF-8"?>
<svg width="177px" height="39px" viewBox="0 0 177 39" version="1.1" xmlns="http://www.w3.org/2000/svg" xmlns:xlink="http://www.w3.org/1999/xlink">
    <!-- Generator: Sketch 48.2 (47327) - http://www.bohemiancoding.com/sketch -->
    <title>MetLife</title>
    <desc>Created with Sketch.</desc>
    <defs></defs>
    <g id="Page-1" stroke="none" stroke-width="1" fill="none" fill-rule="evenodd">
        <g id="MetLife" fill="#0072AD">
            <path d="M62.967,23.177 C62.548,20.965 60.451,19.521 58.168,19.521 C55.699,19.521 53.649,20.784 53.137,23.177 L62.967,23.177 Z M60.267,38.781 L56.276,38.781 C49.421,38.078 44.518,33.836 44.518,26.562 C44.518,18.844 49.969,14.195 57.748,14.195 C66.041,14.195 70.841,19.16 70.841,27.058 L70.841,27.916 L52.997,27.916 C52.997,31.256 54.814,33.063 58.308,33.063 C60.124,33.063 61.429,32.475 62.361,30.941 L70.513,30.941 C69.322,35.76 65.01,38.259 60.267,38.781 Z" id="Fill-2"></path>
            <polyline id="Fill-3" points="85.766 38.478 77.287 38.478 77.287 22.094 73.049 22.094 73.049 15.324 77.287 15.324 77.287 8.373 85.766 8.373 85.766 15.324 89.947 15.324 89.947 22.094 85.766 22.094 85.766 38.478"></polyline>
            <polygon id="Fill-4" points="116.141 38.479 124.62 38.479 124.62 13.741 116.141 13.741"></polygon>
            <path d="M141.63,38.377 L133.153,38.377 L133.153,22.794 L128.93,22.794 L128.93,16.024 L133.153,16.024 L133.153,14.815 C133.153,11.61 133.246,9.263 135.575,6.69 C137.671,4.298 140.698,2.989 143.914,2.989 C145.217,2.989 146.383,3.215 147.547,3.802 L147.547,10.888 C146.569,10.482 145.684,10.121 144.566,10.121 C142.375,10.121 141.63,11.385 141.63,14.002 L141.63,16.024 L146.695,16.024 L146.695,22.794 L141.63,22.794 L141.63,38.377" id="Fill-5"></path>
            <path d="M167.011,23.193 C166.591,20.981 164.494,19.537 162.212,19.537 C159.744,19.537 157.693,20.802 157.181,23.193 L167.011,23.193 Z M164.441,38.781 L160.181,38.781 C153.398,38.036 148.562,33.802 148.562,26.578 C148.562,18.86 154.013,14.211 161.792,14.211 C170.086,14.211 174.883,19.176 174.883,27.075 L174.883,27.932 L157.041,27.932 C157.041,31.272 158.858,33.078 162.352,33.078 C164.168,33.078 165.472,32.491 166.405,30.956 L174.558,30.956 C173.377,35.73 169.132,38.228 164.441,38.781 Z" id="Fill-6"></path>
            <path d="M120.366,0.464 C117.474,0.464 115.129,2.734 115.129,5.535 C115.129,8.336 117.474,10.606 120.366,10.606 C123.255,10.606 125.6,8.336 125.6,5.535 C125.6,2.734 123.255,0.464 120.366,0.464" id="Fill-7"></path>
            <polyline id="Fill-8" points="6.19 6.048 14.766 6.048 21.564 23.395 28.762 6.048 37.425 6.048 42.49 38.504 33.782 38.504 31.338 19.822 31.25 19.822 23.208 38.504 19.742 38.504 12.055 19.822 11.966 19.822 9.168 38.504 0.504 38.504 6.19 6.048"></polyline>
            <polyline id="Fill-9" points="102.378 31.195 112.986 31.195 112.986 38.455 93.529 38.455 93.529 5.476 102.378 5.476 102.378 31.195"></polyline>
            <path d="M172.999,10.779 L173.432,10.779 C173.794,10.779 174.227,10.779 174.227,10.358 C174.227,10.008 173.866,9.938 173.577,9.938 L172.999,9.938 L172.999,10.779 Z M172.492,9.518 L173.648,9.518 C174.373,9.518 174.661,9.868 174.661,10.358 C174.661,10.848 174.373,11.129 173.866,11.129 L174.734,12.389 L174.227,12.389 L173.432,11.198 L172.999,11.198 L172.999,12.389 L172.492,12.389 L172.492,9.518 Z M173.504,13.299 C174.805,13.299 175.781,12.354 175.781,10.989 C175.781,9.588 174.805,8.642 173.504,8.642 C172.131,8.642 171.156,9.588 171.156,10.989 C171.156,12.354 172.131,13.299 173.504,13.299 Z M173.504,8.257 C174.951,8.257 176.252,9.413 176.252,10.989 C176.252,12.494 174.951,13.65 173.504,13.65 C171.988,13.65 170.684,12.494 170.684,10.989 C170.684,9.413 171.988,8.257 173.504,8.257 Z" id="Fill-10"></path>
        </g>
    </g>
</svg>