<?xml version="1.0" encoding="UTF-8"?>
<svg width="445px" height="97px" viewBox="0 0 445 97" version="1.1" xmlns="http://www.w3.org/2000/svg" xmlns:xlink="http://www.w3.org/1999/xlink">
    <!-- Generator: Sketch 48.2 (47327) - http://www.bohemiancoding.com/sketch -->
    <title>nw_insurance_cmyk</title>
    <desc>Created with Sketch.</desc>
    <defs></defs>
    <g id="Page-1" stroke="none" stroke-width="1" fill="none" fill-rule="evenodd">
        <g id="nw_insurance_cmyk">
            <path d="M6.80091287,78.4227321 L78.1971853,78.4227321 L78.1971853,6.82177264 L6.80091287,6.82177264 L6.80091287,78.4227321 Z M0,97 L85,97 L85,0 L0,0 L0,97 Z" id="Fill-1" fill="#0079B3"></path>
            <path d="M104,96.4497444 L108.365892,96.4497444 L108.365892,64 L104,64 L104,96.4497444 Z M115.15855,96.4497444 L119.25205,96.4497444 L119.25205,85.2644086 C119.25205,80.2219963 121.848346,78.0209737 125.265628,78.0209737 C127.863829,78.0209737 130.187734,79.5336974 130.187734,83.6136416 L130.187734,96.4497444 L134.281234,96.4497444 L134.281234,82.467116 C134.281234,76.694225 130.64299,74.1768534 126.450439,74.1768534 C123.124589,74.1768534 120.391144,75.7777713 119.343482,78.0669881 L119.25205,78.0669881 L119.25205,74.727109 L115.15855,74.727109 L115.15855,96.4497444 Z M154.685875,77.7468046 C153.139145,75.1834185 150.180929,74.1768534 147.310336,74.1768534 C143.253028,74.1768534 139.115716,76.328027 139.115716,80.8642807 C139.115716,85.038171 142.207271,86.1846967 145.714081,87.055136 C147.493201,87.4692656 150.910483,87.9274924 150.910483,90.4026842 C150.910483,92.2835231 148.632295,93.1558796 146.535066,93.1558796 C144.165446,93.1558796 142.616811,91.9173251 141.298663,90.5867418 L138.203298,93.1558796 C140.342433,96.0854636 142.980636,97 146.535066,97 C150.81905,97 155.27828,95.0769812 155.27828,90.1745294 C155.27828,86.0907506 152.548645,84.7160702 148.996119,83.845631 C147.173188,83.4334185 143.481609,83.0653033 143.481609,80.4520683 C143.481609,78.8933302 145.167392,78.0209737 147.081755,78.0209737 C149.133267,78.0209737 150.546658,78.9815245 151.502888,80.1759819 L154.685875,77.7468046 Z M178.915433,74.727109 L174.821933,74.727109 L174.821933,85.9124448 C174.821933,90.9548571 172.223732,93.1558796 168.80645,93.1558796 C166.208249,93.1558796 163.884345,91.6431559 163.884345,87.5612944 L163.884345,74.727109 L159.790845,74.727109 L159.790845,88.7078201 C159.790845,94.4826284 163.430993,97 167.62164,97 C170.94749,97 173.682839,95.3971648 174.730501,93.1098652 L174.821933,93.1098652 L174.821933,96.4497444 L178.915433,96.4497444 L178.915433,74.727109 Z M184.658524,96.4497444 L188.752025,96.4497444 L188.752025,85.5385777 C188.752025,80.7722519 190.93878,78.5712294 194.946563,78.5712294 C195.584684,78.5712294 196.268521,78.7092726 196.950454,78.891413 L197.133318,74.4510225 C196.586629,74.2669649 195.948508,74.1768534 195.312292,74.1768534 C192.626468,74.1768534 189.896833,75.7816059 188.849171,78.0727399 L188.757739,78.0727399 L188.752025,74.727109 L184.658524,74.727109 L184.658524,96.4497444 Z M203.600249,79.9497444 C205.103167,78.8013014 206.60799,77.4707181 209.750975,77.4707181 C213.25969,77.4707181 214.899757,79.8117011 214.899757,82.0606554 L214.899757,82.977109 L211.89392,82.977109 C205.331748,82.977109 200.007721,84.9001278 200.007721,90.4927957 C200.007721,94.7127004 203.465005,97 207.472787,97 C210.754826,97 213.213974,95.9474204 215.036905,93.1558796 L215.128337,93.1558796 C215.128337,94.2544736 215.174053,95.3511504 215.263581,96.4497444 L218.903729,96.4497444 C218.766581,95.3070532 218.720865,94.0244016 218.720865,92.5116779 L218.720865,81.4183709 C218.720865,77.6547757 216.082662,74.1768534 209.709069,74.1768534 C206.703232,74.1768534 203.423098,75.2275157 201.146815,77.3806066 L203.600249,79.9497444 Z M214.899757,85.9987218 L214.899757,87.3734023 C214.899757,90.3106554 213.305406,93.704218 208.74903,93.704218 C205.924153,93.704218 204.101221,92.6497211 204.101221,90.1726121 C204.101221,86.6851034 208.840462,85.9987218 212.713001,85.9987218 L214.899757,85.9987218 Z M224.23728,96.4497444 L228.33078,96.4497444 L228.33078,85.2644086 C228.33078,80.2219963 230.927076,78.0209737 234.346263,78.0209737 C236.942559,78.0209737 239.266464,79.5336974 239.266464,83.6136416 L239.266464,96.4497444 L243.359964,96.4497444 L243.359964,82.467116 C243.359964,76.694225 239.72172,74.1768534 235.531073,74.1768534 C232.203319,74.1768534 229.467969,75.7777713 228.424117,78.0669881 L228.33078,78.0669881 L228.33078,74.727109 L224.23728,74.727109 L224.23728,96.4497444 Z M267.635239,77.6547757 C265.496104,75.3214618 262.486457,74.2228678 259.347282,74.2228678 C252.606055,74.2228678 248.057298,78.9815245 248.057298,85.6804555 C248.057298,92.3755519 252.699392,97 259.347282,97 C262.486457,97 265.404671,96.0394492 267.543806,93.6582036 L264.629402,90.7228678 C263.265537,92.3295375 261.669281,93.1558796 259.391093,93.1558796 C255.15854,93.1558796 252.42319,89.8524285 252.42319,85.770567 C252.42319,81.6906228 254.699473,78.0669881 259.164417,78.0669881 C261.442605,78.0669881 263.033146,78.8933302 264.537969,80.4980827 L267.635239,77.6547757 Z M291,87.0973158 L291,85.6344411 C291,80.0398559 288.089405,74.1768534 280.483381,74.1768534 C274.012641,74.1768534 269.326736,79.0773879 269.326736,85.5884267 C269.326736,92.0534511 273.599291,97 280.43576,97 C284.582596,97 287.725581,95.535208 289.999959,92.5576923 L286.908405,90.1726121 C285.312149,92.1454799 283.489218,93.4300488 280.984354,93.4300488 C277.201343,93.4300488 273.692628,90.9069254 273.692628,87.0973158 L291,87.0973158 Z M273.692628,83.8034511 C273.692628,80.9122124 276.336545,77.4707181 280.393854,77.4707181 C284.538784,77.4707181 286.542676,80.1778991 286.634108,83.8034511 L273.692628,83.8034511 Z" id="Fill-2" fill="#0A0B09"></path>
            <path d="M215.498023,0 C218.508986,0 221,2.23891954 221,4.99904889 C221,7.76108046 218.508986,10 215.498023,10 C212.492991,10 210,7.76108046 210,4.99904889 C210,2.23891954 212.492991,0 215.498023,0" id="Fill-3" fill="#0A0B09"></path>
            <path d="M351.498023,0 C354.510963,0 357,2.23891954 357,4.99904889 C357,7.76108046 354.510963,10 351.498023,10 C348.50683,10 346,7.76108046 346,4.99904889 C346,2.23891954 348.50683,0 351.498023,0" id="Fill-4" fill="#0A0B09"></path>
            <path d="M179,26.2821732 L179,45.2514753 L170.695297,45.2514753 L170.695297,42.0639079 C168.526172,44.3996586 165.852332,45.8797383 161.695164,45.9934423 C155.151189,46.1842339 150,42.1949567 150,36.2283855 C150,27.0491936 159.780324,25.0314288 169.354524,25.0314288 L170.43138,25.0314288 C170.43138,22.4952506 169.306364,20.1479368 164.251495,20.1479368 C160.820579,20.1479368 157.907865,21.2445062 155.831208,23.1601301 L150.811014,18.1417351 C154.268899,14.7402499 159.129202,13 164.496147,13 C169.809154,13 172.725721,13.7496758 175.696227,16.4169026 C178.501063,18.9318817 179,23.6592716 179,26.2821732 M170.43138,31.5626657 L169.628072,31.5626657 C168.229507,31.5626657 164.846752,31.730331 162.298127,32.431827 C160.535472,32.9174782 159.063704,34.069936 159.063704,35.6791372 C159.063704,37.953218 161.340707,38.9476465 163.386542,38.9476465 C167.79992,38.9476465 170.43138,36.1551524 170.43138,32.5281864 L170.43138,31.5626657" id="Fill-5" fill="#0A0B09"></path>
            <path d="M196.825119,13.8907064 L196.825119,4 L188.04945,4 L188.04945,13.8907064 L182,13.8907064 L182,21.3480764 L188.04945,21.3480764 L188.04945,34.6661793 C188.04945,39.1240976 188.795712,41.7742849 190.545178,43.5493923 C192.190734,45.2189528 194.701577,46 198.417776,46 C200.775587,46 203.154181,45.5259984 205,44.7180846 L205,37.6579549 C203.887219,38.0379238 202.27378,38.2912364 200.252259,38.2912364 C197.526039,38.2912364 196.825119,36.7790368 196.825119,34.2324774 L196.825119,21.3480764 L205,21.3480764 L205,13.8907064 L196.825119,13.8907064" id="Fill-6" fill="#0A0B09"></path>
            <path d="M431,30.0637813 L431,32.4403364 L408.12212,32.4403364 C408.274919,35.657263 411.875254,38.425092 416.119255,38.5869984 C420.086308,38.7469774 422.259878,37.1683897 424.305479,34.9306115 L429.945685,39.0919923 C426.52107,43.4634659 422.282798,46 416.279694,46 C406.771756,46 399,40.034519 399,29.5028912 C399,21.0818293 404.197087,13 415.171899,13 C426.46377,13 431,21.843175 431,30.0637813 M421.566551,25.9698616 C421.175003,22.5370598 419.301301,20.0217277 414.870121,20.1123182 C411.105527,20.1971263 408.540408,22.7664272 408.14122,25.9698616 L421.566551,25.9698616" id="Fill-7" fill="#0A0B09"></path>
            <polyline id="Fill-8" fill="#0A0B09" points="135.233364 0 135.233364 30.5526515 116.01151 0 104 0 104 45 113.770457 45 113.770457 13.4191889 133.523439 45 145 45 145 0 135.233364 0"></polyline>
            <polyline id="Fill-9" fill="#0A0B09" points="333.6862 14 328.705104 33.257662 323.718336 14 314.508507 14 309.695652 33.212149 304.710775 14 295 14 304.89414 45 313.710775 45 319.013233 25.5109806 324.973535 45 333.136106 45 343 14 333.6862 14"></polyline>
            <polygon id="Fill-10" fill="#0A0B09" points="211 45 220 45 220 14 211 14"></polygon>
            <polygon id="Fill-11" fill="#0A0B09" points="347 45 356 45 356 14 347 14"></polygon>
            <path d="M289.945942,15.8614493 C288.03764,13.8955486 285.660972,12.9737935 282.132742,13.0005665 C278.654832,13.0235148 274.629204,14.6930005 272.718967,17.1389024 L272.718967,13.7425602 L264,13.7425602 L264,45 L273.098305,45 L273.098305,28.0106396 C273.098305,25.8037821 273.707955,24.1706311 274.768553,23.0155688 C275.691738,21.9962837 277.031033,21.3479954 278.730312,21.2447282 C280.78764,21.1299869 281.890817,22.0096701 282.674653,22.9926205 C283.646223,24.2088782 283.909437,26.3315921 283.909437,29.1905626 L283.909437,45 L293,45 L293,25.4786818 C293,21.6597092 292.502603,18.4909372 289.945942,15.8614493" id="Fill-12" fill="#0A0B09"></path>
            <path d="M395,0 L395,45.2616036 L386.433284,45.2616036 L386.433284,41.7947654 C384.431805,44.0710108 381.157889,46 376.617336,46 C372.250825,46 368.462518,44.5499191 365.660448,41.7871334 C362.661131,38.8297316 361,34.517649 361,29.6694181 C361,20.2000083 367.43954,13.3331121 376.323399,13.3331121 C380.206461,13.3331121 383.428165,14.5084408 385.90149,16.8133062 L385.90149,0 L395,0 Z M386.158685,29.6694181 C386.158685,25.4718155 383.40496,21.2303289 378.119895,21.2303289 C372.852235,21.2303289 370.102377,25.4718155 370.102377,29.6694181 C370.102377,33.8498486 372.852235,38.0989672 378.119895,38.0989672 C383.40496,38.0989672 386.158685,33.8498486 386.158685,29.6694181 Z" id="Fill-13" fill="#0A0B09"></path>
            <path d="M259,29.5 C259,39.0662228 251.859808,46 241.998078,46 C232.140192,46 225,39.0662228 225,29.5 C225,19.9337772 232.140192,13 241.998078,13 C251.859808,13 259,19.9337772 259,29.5 M241.998078,20.9879117 C236.756812,20.9879117 234.027586,25.2718991 234.027586,29.5 C234.027586,33.730028 236.756812,38.0140154 241.998078,38.0140154 C247.229734,38.0140154 249.972414,33.730028 249.972414,29.5 C249.972414,25.2718991 247.229734,20.9879117 241.998078,20.9879117" id="Fill-14" fill="#0A0B09"></path>
            <path d="M435.312442,10.9533485 L436.777362,10.9533485 L436.777362,7.67651384 L437.847521,7.67651384 L439.847521,10.9533485 L441.385407,10.9533485 L439.299345,7.56422938 C440.391955,7.43323085 441.217025,6.75578131 441.217025,5.36345408 C441.217025,3.81954284 440.315248,2.95495255 438.395697,2.95495255 L435.312442,2.95495255 L435.312442,10.9533485 Z M436.777362,4.19569576 L437.847521,4.19569576 C438.754911,4.17698169 439.752105,4.23499532 439.752105,5.30918326 C439.752105,6.3814998 438.754911,6.43764203 437.847521,6.43764203 L436.777362,6.43764203 L436.777362,4.19569576 Z M431,7.0009357 C431,10.8616495 434.143124,14 437.999065,14 C441.856876,14 445,10.8616495 445,7.0009357 C445,3.14396471 441.856876,0 437.999065,0 C434.143124,0 431,3.14396471 431,7.0009357 Z M432.238541,7.0009357 C432.238541,3.81954284 434.818522,1.24074322 437.999065,1.24074322 C441.181478,1.24074322 443.761459,3.81954284 443.761459,7.0009357 C443.761459,10.1804572 441.181478,12.7611282 437.999065,12.7611282 C434.818522,12.7611282 432.238541,10.1804572 432.238541,7.0009357 Z" id="Fill-15" fill="#0A0B09"></path>
            <path d="M30.9958915,82 C31.5464256,82 32,82.4500434 32,83.0008688 C32,83.5482189 31.5464256,84 30.9958915,84 C30.451931,84 30,83.5482189 30,83.0008688 C30,82.4500434 30.451931,82 30.9958915,82" id="Fill-16" fill="#FFFFFE"></path>
            <path d="M61,82 C61.5460526,82 62,82.4500434 62,83.0008688 C62,83.5482189 61.5460526,84 61,84 C60.4523026,84 60,83.5482189 60,83.0008688 C60,82.4500434 60.4523026,82 61,82" id="Fill-17" fill="#FFFFFE"></path>
            <path d="M23,87.8181666 L23,91.8379785 L21.2849332,91.8379785 L21.2849332,91.1670754 C20.8311057,91.6585727 20.2806804,91.9725329 19.4185905,91.9986962 C18.0680437,92.0379413 17,91.1876324 17,89.9299227 C17,87.9826219 19.0230863,87.5527955 21.0042527,87.5527955 L21.22661,87.5527955 C21.22661,87.014578 20.9969623,86.5174743 19.954435,86.5174743 C19.2436209,86.5174743 18.6385176,86.7510757 18.2065614,87.15287 L17.1713244,86.0932543 C17.8857837,85.3700245 18.8882139,85 19.9981774,85 C21.0990279,85 21.7023086,85.1607177 22.3165249,85.7232298 C22.8961118,86.2577096 23,87.261261 23,87.8181666 M21.22661,88.9357154 L21.0589307,88.9357154 C20.7746051,88.9357154 20.0747266,88.9712228 19.5498177,89.1225965 C19.1816525,89.2253811 18.873633,89.4683265 18.873633,89.8065812 C18.873633,90.2943408 19.3475091,90.5055164 19.7703524,90.5055164 C20.6834751,90.5055164 21.22661,89.9093658 21.22661,89.1431534 L21.22661,88.9357154" id="Fill-18" fill="#FFFFFE"></path>
            <path d="M27.2256853,85.1193063 L27.2256853,83 L25.3143072,83 L25.3143072,85.1193063 L24,85.1193063 L24,86.7158379 L25.3143072,86.7158379 L25.3143072,89.5685332 C25.3143072,90.5238195 25.4757792,91.0936064 25.8569283,91.4734643 C26.2136688,91.8288759 26.7581675,92 27.5711603,92 C28.0818626,92 28.5963199,91.8946929 29,91.7216883 L29,90.211659 C28.7540368,90.2925198 28.4048066,90.3489344 27.9692077,90.3489344 C27.3721367,90.3489344 27.2256853,90.02173 27.2256853,89.4763895 L27.2256853,86.7158379 L29,86.7158379 L29,85.1193063 L27.2256853,85.1193063" id="Fill-19" fill="#FFFFFE"></path>
            <path d="M78,88.6204964 L78,89.1248999 L72.9945415,89.1248999 C73.0251092,89.8049106 73.8141376,90.3952495 74.73881,90.4270083 C75.6080786,90.458767 76.0876092,90.1262343 76.5289301,89.6517214 L77.7650109,90.5334935 C77.0199236,91.4619696 76.0933406,92 74.7808406,92 C72.7003275,92 71,90.7352549 71,88.5028022 C71,86.7187083 72.1367358,85 74.5362991,85 C77.0103712,85 78,86.8793702 78,88.6204964 M75.9328603,87.7518014 C75.8526201,87.0250867 75.4399563,86.4926608 74.4694323,86.5076061 C73.6441048,86.5281559 73.0862445,87.0736589 72.9983624,87.7518014 L75.9328603,87.7518014" id="Fill-20" fill="#FFFFFE"></path>
            <polyline id="Fill-21" fill="#FFFFFE" points="13.8588787 82 13.8588787 88.7881242 9.63994884 82 7 82 7 92 9.14495843 92 9.14495843 84.9824561 13.4809209 92 16 92 16 82 13.8588787 82"></polyline>
            <polyline id="Fill-22" fill="#FFFFFE" points="57.8661744 85 56.7229827 89.3461108 55.5797911 85 53.4657781 85 52.3641931 89.3382764 51.2229827 85 49 85 51.2645893 92 53.287464 92 54.5019813 87.5970901 55.8670749 92 57.7373919 92 60 85 57.8661744 85"></polyline>
            <polygon id="Fill-23" fill="#FFFFFE" points="30 92 32 92 32 85 30 85"></polygon>
            <polygon id="Fill-24" fill="#FFFFFE" points="60 92 62 92 62 85 60 85"></polygon>
            <path d="M47.3664937,85.6269921 C46.972841,85.1988116 46.4821483,84.998102 45.7497711,85.0000135 C45.0338724,85.0076596 44.2007934,85.3689369 43.8053097,85.9041625 L43.8053097,85.1644042 L42,85.1644042 L42,92 L43.8840403,92 L43.8840403,88.284005 C43.8840403,87.8023019 44.0103753,87.4448477 44.2319194,87.188704 C44.4205066,86.9650561 44.6969789,86.8293382 45.04852,86.8044885 C45.4732987,86.7777272 45.7003357,86.9707907 45.8651205,87.1829694 C46.0683552,87.4524938 46.1177907,87.9150816 46.1177907,88.5401487 L46.1177907,92 L48,92 L48,87.7296642 C48,86.8962414 47.8992981,86.2042712 47.3664937,85.6269921" id="Fill-25" fill="#FFFFFE"></path>
            <path d="M70,82 L70,91.8406375 L68.2381572,91.8406375 L68.2381572,91.0874597 C67.8245705,91.5826219 67.1486205,92 66.215773,92 C65.3175429,92 64.5340968,91.6850692 63.958355,91.0855625 C63.338886,90.4386264 63,89.5052172 63,88.4522861 C63,86.3881616 64.3245705,84.8950863 66.1538261,84.8950863 C66.9554919,84.8950863 67.6186882,85.1531019 68.1270172,85.6539556 L68.1270172,82 L70,82 Z M68.1780323,88.4522861 C68.1780323,87.5397458 67.6095783,86.6158224 66.5218636,86.6158224 C65.4359708,86.6158224 64.865695,87.5397458 64.865695,88.4522861 C64.865695,89.3572377 65.4359708,90.2849554 66.5218636,90.2849554 C67.6095783,90.2849554 68.1780323,89.3572377 68.1780323,88.4522861 Z" id="Fill-26" fill="#FFFFFE"></path>
            <path d="M40,88.5009346 C40,90.528972 38.5308865,92 36.4990954,92 C34.4691135,92 33,90.528972 33,88.5009346 C33,86.471028 34.4691135,85 36.4990954,85 C38.5308865,85 40,86.471028 40,88.5009346 M36.4990954,86.6934579 C35.4189713,86.6934579 34.8599121,87.6018692 34.8599121,88.5009346 C34.8599121,89.3943925 35.4189713,90.3046729 36.4990954,90.3046729 C37.5792194,90.3046729 38.1418971,89.3943925 38.1418971,88.5009346 C38.1418971,87.6018692 37.5792194,86.6934579 36.4990954,86.6934579" id="Fill-27" fill="#FFFFFE"></path>
        </g>
    </g>
</svg>