<?xml version="1.0" encoding="UTF-8"?>
<svg width="388px" height="48px" viewBox="0 0 388 48" version="1.1" xmlns="http://www.w3.org/2000/svg" xmlns:xlink="http://www.w3.org/1999/xlink">
    <!-- Generator: Sketch 48.2 (47327) - http://www.bohemiancoding.com/sketch -->
    <title>progressive-3</title>
    <desc>Created with Sketch.</desc>
    <defs></defs>
    <g id="Page-1" stroke="none" stroke-width="1" fill="none" fill-rule="evenodd">
        <g id="progressive-3" fill="#28539C" fill-rule="nonzero">
            <path d="M197.470475,5.44768932 C196.055351,3.24320293 193.48561,2.46528003 191.430259,2.46528003 L171.004791,2.46528003 L149.804427,47.863434 L160.467528,47.863434 L168.563095,30.0915736 L174.216967,30.0915736 C174.216967,30.0915736 175.885974,30.2230849 176.658663,31.3888547 C177.301098,32.5590826 177.170845,34.375722 176.144273,36.5779794 C174.448893,40.3175505 172.905902,44.1256534 171.519181,47.9927163 L182.312535,47.9927163 C182.312535,47.9927163 182.696671,45.7904589 183.597405,43.5815145 C184.367886,41.6355928 186.937627,35.2784692 186.937627,35.2784692 C188.992979,30.0893446 186.423238,28.0163695 184.75423,26.9754239 C188.864933,26.587577 191.823226,24.6416552 193.492233,21.1398877 C194.777104,18.416043 196.958293,13.8755589 196.958293,13.7462766 C199.009229,9.46881515 198.366794,6.8742528 197.470475,5.44768932 Z M186.677121,13.2313763 L184.749815,17.1232199 L183.721036,19.5884999 C182.822509,21.4051393 181.409593,22.4416269 179.610333,22.4416269 L172.159408,22.4416269 L177.81328,9.99040242 L185.90664,9.99040242 C185.90664,9.99040242 186.679329,10.1196847 186.93542,10.639043 C187.319556,11.1561723 187.189303,12.0633775 186.677121,13.2313763 Z M83.8963073,5.44768932 C82.4811835,3.24320293 79.9136501,2.46528003 77.8582987,2.46528003 L57.430623,2.46528003 L36.2324666,47.863434 L46.8955676,47.863434 L54.9911351,30.0915736 L60.6450071,30.0915736 C60.6450071,30.0915736 62.3140142,30.2230849 63.084495,31.3888547 C63.7269303,32.5590826 63.5988848,34.375722 62.5701053,36.5779794 C60.8747248,40.3175505 59.3317345,44.1256534 57.9450128,47.9927163 L68.738367,47.9927163 C68.738367,47.9927163 69.1247112,45.7904589 70.0232376,43.5815145 C70.7937183,41.6355928 73.3634595,35.2784692 73.3634595,35.2784692 C75.4210185,30.0893446 72.8512774,28.0163695 71.1800626,26.9754239 C75.2907653,26.587577 78.2468506,24.6416552 79.9180654,21.1398877 C81.202936,18.416043 83.3863329,13.8755589 83.3863329,13.7462766 C85.4372688,9.46881515 84.7948336,6.8742528 83.8963073,5.44768932 Z M73.1029531,13.2313763 L71.1756472,17.1232199 L70.1490754,19.5884999 C69.2505491,21.4051393 67.837633,22.4416269 66.0383727,22.4416269 L58.5874481,22.4416269 L64.3693656,9.99040242 L72.3346799,9.99040242 C72.3346799,9.99040242 73.1051607,10.1196847 73.3612518,10.639043 C73.7453883,11.1561723 73.6173428,12.0633775 73.1029531,13.2313763 Z M109.333212,39.0432594 C111.516609,34.6320577 114.472694,28.2771631 117.556825,21.5321926 L121.153138,13.7507346 C124.879704,5.70848295 120.640956,2.20448639 115.373428,2.20448639 L102.396677,2.20448639 C97.0011038,2.20448639 93.1464922,4.79904873 90.7047966,10.1174557 C89.419926,12.9728117 87.1084836,17.6403491 84.6667881,23.0902674 L79.1431693,34.5027753 C73.747596,46.0490236 81.8409559,47.9949453 85.8236131,47.9949453 L94.0472262,47.9949453 C102.140586,48.1242276 106.251289,45.7904589 109.333212,39.0432594 Z M94.9435448,39.5648467 L90.1904068,39.5648467 C89.4177183,39.5648467 87.7509189,39.3040531 89.0335818,36.5779794 C90.8328421,32.5590826 98.4118122,16.0845033 99.9549815,12.7097891 C100.981553,10.3760204 102.138378,9.98594441 103.551294,9.98594441 L109.333212,9.98594441 C110.487829,9.85443309 111.516609,10.5030737 110.618083,12.4489954 L99.8247283,35.7955985 C98.2859744,39.0432594 97.2571949,39.5648467 94.9435448,39.5648467 Z M152.374168,2.20448639 L141.454976,2.20448639 C135.801104,2.20448639 131.176011,5.05984237 128.864569,10.1174557 C126.937263,14.3993752 117.42878,34.5027753 117.42878,34.5027753 C113.960512,41.8986154 115.887818,47.9949453 125.394094,47.9949453 L133.873798,47.9949453 C140.682287,47.9949453 144.022509,46.9584578 147.10664,40.2112583 L154.943909,22.7024205 L138.885235,22.7024205 L135.416967,30.2253139 L140.940586,30.2253139 L137.856455,37.0995667 C136.957929,39.1769998 136.315494,39.5670757 134.129889,39.5670757 L128.60627,39.5670757 C126.937263,39.5670757 126.294828,38.6576415 127.3214,36.5802084 C128.60627,33.8585928 138.629144,12.7120181 138.629144,12.7120181 C139.783761,10.3782494 140.426196,9.98817342 142.097411,9.98817342 L147.877121,9.98817342 C149.292245,9.98817342 150.062725,10.636814 149.161991,12.4512244 C148.9059,12.9705827 146.59225,18.0281961 146.59225,18.0281961 L156.740962,18.0281961 L159.054612,13.099865 C162.394834,5.70625395 159.438748,2.33599771 152.374168,2.20448639 Z M281.620666,47.863434 L302.946868,2.33599771 L291.895215,2.33599771 L270.699266,47.863434 L281.620666,47.863434 Z M330.054987,2.33599771 L305.25831,42.4179737 L317.848717,2.33599771 L306.415135,2.33599771 L295.88008,47.863434 L310.656091,47.863434 L341.616615,2.33599771 L330.054987,2.33599771 Z M245.388199,32.0374953 L244.491881,15.1772981 C244.361627,13.2313763 244.876017,10.3782494 248.47233,10.3782494 L255.92767,10.3782494 L259.654236,2.33599771 L247.063829,2.33599771 C237.169001,2.33599771 233.700734,8.43232761 234.084871,15.6966564 C234.343169,20.1078582 234.985605,34.5027753 234.985605,34.5027753 C235.115858,38.0067719 233.830987,39.5648467 230.616603,39.5648467 L222.134691,39.5648467 L218.408125,47.863434 L231.77122,47.863434 C240.765314,47.863434 245.900381,42.0301267 245.388199,32.0374953 Z M270.569013,32.0374953 L269.672694,15.1772981 C269.542441,13.2313763 270.056831,10.3782494 273.653144,10.3782494 L281.108484,10.3782494 L284.83505,2.33599771 L272.244643,2.33599771 C264.02103,2.33599771 258.753502,6.87648181 259.265684,15.6966564 C259.523983,20.1078582 260.166418,34.5027753 260.166418,34.5027753 C260.296671,38.0067719 259.011801,39.5648467 255.797417,39.5648467 L247.573804,39.5648467 L243.719192,47.863434 L256.952034,47.863434 C266.718817,47.863434 271.087818,40.7328456 270.569013,32.0374953 Z M208.901849,2.33599771 L187.833946,47.863434 L214.427676,47.863434 L218.28008,39.5648467 L202.09336,39.5648467 L207.875277,27.5014692 L221.492256,27.5014692 L225.092984,19.8470645 L211.341337,19.8470645 L215.714754,10.3782494 L229.843915,10.3782494 L233.568273,2.33599771 L208.901849,2.33599771 Z M345.217343,2.33599771 L324.145024,47.863434 L350.740962,47.863434 L354.595573,39.5648467 L338.404438,39.5648467 L344.186356,27.5014692 L357.80775,27.5014692 L361.404063,19.8448355 L347.656831,19.8448355 L352.025832,10.3760204 L366.154993,10.3760204 C366.285246,10.3760204 369.881559,2.3337687 369.881559,2.3337687 L345.217343,2.3337687 L345.217343,2.33599771 Z M21.970845,24.128984 L28.3951977,9.8588911 L35.3317326,9.8588911 C36.7468563,9.8588911 37.9014737,10.636814 36.4885576,13.6214523 C35.3341009,16.1942635 34.1344042,18.7461354 32.890037,21.275857 C31.9915107,23.2217788 30.7066401,24.131213 28.7793343,24.131213 L21.970845,24.131213 L21.970845,24.128984 Z M18.3723243,32.0374953 L28.9073798,32.0374953 C35.7158691,32.0374953 39.3121821,29.9645202 42.1402219,24.126755 C43.0387482,22.3101155 44.709963,18.418272 46.7653144,14.0070702 C50.3616273,6.0941009 45.9948336,2.46305102 41.3697411,2.46305102 L21.070111,2.46305102 L0,47.9927163 L11.0494452,47.9927163 L18.3723243,32.0374953 Z M376.818094,5.57697163 C376.818094,2.46528003 379.261997,0 382.346128,0 C385.430259,0 388,2.46528003 388,5.57697163 C388,8.69089224 385.430259,11.2854546 382.346128,11.2854546 C379.261997,11.2854546 376.818094,8.69089224 376.818094,5.57697163 Z M387.357565,5.57697163 C387.357565,2.85312697 385.041707,0.648640586 382.346128,0.648640586 C381.050613,0.646864846 379.80759,1.16538545 378.891108,2.08988357 C377.974626,3.01438168 377.459942,4.26894253 377.460529,5.57697163 C377.460529,8.43009861 379.646134,10.636814 382.346128,10.636814 C385.041707,10.636814 387.357565,8.43232761 387.357565,5.57697163 Z M385.169752,8.82017456 L384.269018,8.82017456 L382.471966,5.83776527 L381.061257,5.83776527 L381.061257,8.82017456 L380.288569,8.82017456 L380.288569,2.46528003 L382.988563,2.46528003 C383.500745,2.46528003 384.143181,2.46528003 384.527317,2.72384466 C385.039499,2.9846383 385.300006,3.63104988 385.300006,4.15040815 C385.300006,5.316178 384.399272,5.83553626 383.242447,5.83553626 L385.169752,8.82017456 Z M382.215875,5.18912468 C383.112193,5.18912468 384.527317,5.44768932 384.527317,4.15040815 C384.527317,3.11169161 383.630999,2.9846383 382.85831,2.9846383 L381.061257,2.9846383 L381.061257,5.18912468 L382.215875,5.18912468 Z" id="Shape"></path>
        </g>
    </g>
</svg>