<?xml version="1.0" encoding="UTF-8"?>
<svg width="463px" height="218px" viewBox="0 0 463 218" version="1.1" xmlns="http://www.w3.org/2000/svg" xmlns:xlink="http://www.w3.org/1999/xlink">
    <!-- Generator: Sketch 48.2 (47327) - http://www.bohemiancoding.com/sketch -->
    <title>Group</title>
    <desc>Created with Sketch.</desc>
    <defs></defs>
    <g id="Page-1" stroke="none" stroke-width="1" fill="none" fill-rule="evenodd">
        <g id="Group" fill="#E1261C" fill-rule="nonzero">
            <g id="state-farm-logo-vector">
                <path d="M214.1,23.4 L214.2,23.2 L214.1,23.4 C210.9,21.3 206.5,20.2 202.2,20.2 C192.2,20.2 185.1,25.2 180.4,32 C175.8,38.9 173.6,47.9 173.6,55.9 C173.6,61.6 174.5,67 178,71.9 C179.7,74.2 184,79.9 197.5,79.9 C206.9,79.9 211.4,77.5 213.8,76 L214.2,75.4 C214.7,73.3 216.3,63.9 216.9,61.6 L216.4,61.2 C211.6,65 206.5,67.8 200.5,67.8 C196.6,67.8 193.6,66.8 191.5,65.1 C189.4,63.3 188.5,60.6 188.5,57.4 C188.5,56.2 188.6,55.1 188.7,53.9 L188.7,53.7 L188.9,53.7 C198.2,53.5 202.8,53.3 210.5,53.3 C213.1,53.3 215.9,53.3 219.3,53.3 L219.9,52.9 C220.6,49.4 221.5,45.2 221.5,40.2 C221.5,35.8 221,27.9 214.1,23.4 Z M208,42.9 L208,43.1 L199,43.2 L190.1,43.3 L190.2,43.1 L190.2,43 C190.3,42.4 190.6,41.7 190.8,40.9 C191.4,38.9 192.3,36.8 193.8,34.8 C194,34.4 194.4,34.1 194.7,33.8 C197.5,30.8 200.1,30.3 201.8,30.3 C204.2,30.3 205.9,31.3 207,32.7 C207.2,32.9 207.4,33.2 207.5,33.4 C208.1,34.4 208.4,35.5 208.5,36.6 C208.6,37 208.6,37.5 208.6,37.8 C208.6,39.6 208.3,41.3 208,42.9 Z M173,32.8 L172.4,33.4 L163.5,33.2 L159.4,52.6 C158.8,55 157.6,61.1 157.6,63.1 C157.6,64.9 158.2,66.1 159.2,66.9 C160.2,67.6 161.4,67.9 162.4,67.9 C164.8,67.9 165.7,67.2 167.4,66.6 L167.6,66.8 L165.4,77.9 L164.7,78.6 C161.7,79.2 159.3,79.8 156.2,79.8 C147.9,79.8 141.9,77 141.9,67.4 C141.9,62.9 143.7,54.7 145.1,48.6 L148.4,33.2 L141.5,33.4 L141.1,32.8 L143.2,21.9 L143.8,21.5 L150.9,21.5 L153.7,7.2 L154.3,6.6 C161.4,4.8 163.4,3.9 169.9,1.7 L170.3,2.1 L168.1,11.4 L165.9,21.8 L175,21.6 L175.2,22.1 L173,32.8 Z M282.6,14.5 L282.1,15 L258.7,15 L254.9,34.5 L275.4,33.9 L275.8,34.4 C274.1,40 273.7,41.6 272.6,46.5 L272.1,47 L252.6,47 L250,60.5 L246.7,78.2 L246.3,78.6 L229.2,79.1 L229,78.6 L231.9,63.6 L236.3,42.4 C239.7,25.9 240.7,20.7 243.9,2.8 L244.4,2.3 L269,2.3 L284.6,1.9 L284.8,2.3 C284.9,2.2 282.6,14.5 282.6,14.5 Z M315.6,24 C312.3,21.7 307.2,20.5 300,20.5 C296.5,20.5 292.9,20.9 289.4,21.5 C286.2,22.1 284.3,22.6 282.6,23.1 L282.1,23.6 L279.8,35.4 L280.5,35.9 C282,35.2 284.2,34.3 287.1,33.3 C290,32.2 292.7,31.7 295.1,31.7 C298.6,31.7 301.4,32.2 303.3,33.2 C305.3,34.2 306.6,36.5 306.6,38.9 C306.6,39.5 306.6,40 306.5,40.5 C306.4,41 306.4,41.2 306.4,41.5 L306.4,41.7 C306.4,41.7 305.3,41.8 304,41.9 C303.1,42 302.2,42.1 301,42.3 C299,42.5 296.7,42.8 294.8,43.2 C290,43.9 276.8,46 272.9,54.9 C268.8,62.2 269.5,71.8 273.5,76.6 C275,78.3 277.2,79.8 280.1,80.4 C280.2,80.4 280.7,80.5 280.8,80.5 C292.3,82.3 300.6,72.3 300.6,72.3 L299.4,78.5 L299.9,79 L312.8,78.5 L313.3,78 L320.9,40 C321,39.1 321.1,38.3 321.3,37.2 C321.4,36.1 321.4,35.2 321.4,34.5 C321.1,29.7 318.9,26.3 315.6,24 Z M302.5,62.2 C302.5,62.2 299.5,67.1 294.9,68.8 C290.3,70.5 287.2,69.2 286,67.5 C285,66.2 282.8,61.9 286.9,57.1 C290.9,52.2 304.5,52 304.5,52 C304.5,52 302.5,62.2 302.5,62.2 Z M365,19.7 L361.8,36 L361.2,36.6 C360.3,36.5 359.1,36.4 357.8,36.4 C353.5,36.4 347.4,37.7 342.8,44.1 L336.1,78.2 L335.6,78.6 L321.6,79 L321.2,78.6 L332.3,21.5 L332.9,20.9 L346.9,19.6 L347.5,20.2 L345.9,28.5 L346.6,27.9 C349.5,25.2 352.1,23.4 355,21.8 C357.9,20.2 360.7,19.4 363.7,19.4 C363.9,19.4 364.3,19.4 364.6,19.4 L365,19.7 Z M440.7,34.1 C440.7,37.5 440,41.2 439.1,44.6 L432.5,78.1 L432,78.5 L417.2,79 L416.8,78.5 C416.8,78.5 424.4,41.4 424.4,39.6 C424.4,37.9 423.5,33.4 418.8,33.4 C415.1,33.4 411.2,37.2 411.2,37.2 L403.2,78.2 L402.7,78.6 L396.4,78.8 L390.7,79 L387.9,79.1 L387.8,78.9 L387.7,78.7 C387.7,78.7 388.8,73.1 390.3,66 C392.5,55 395.3,40.9 395.3,39.7 C395.3,38 394.4,33.5 389.7,33.5 C386,33.5 382.1,37.3 382.1,37.3 L374.1,78.3 L373.6,78.7 L371.3,78.8 L358.7,79.2 L358.3,78.7 L369.4,21.6 L370,21 L384.8,19.7 L385.4,20.3 L383.8,28.3 C383.8,28.3 390.9,20.5 400,20.3 C408.5,20.2 410.2,28.3 410.2,28.3 C410.2,28.3 418.6,20.1 427.6,20.3 C432.3,20.3 440.7,22.3 440.7,34.1 Z M131.4,24 C128.1,21.7 123,20.5 115.8,20.5 C112.3,20.5 108.7,20.9 105.2,21.5 C102,22.1 100.1,22.6 98.4,23.1 L97.9,23.6 L95.6,35.4 L96.3,35.9 C97.8,35.2 100,34.3 102.9,33.3 C105.8,32.2 108.5,31.7 110.9,31.7 C114.4,31.7 117.2,32.2 119.1,33.2 C121.1,34.2 122.4,36.5 122.4,38.9 C122.4,39.5 122.4,40 122.3,40.5 C122.2,41 122.2,41.2 122.2,41.5 L122.2,41.7 C122.2,41.7 121,41.8 119.8,41.9 C118.9,42 118,42.1 116.8,42.3 C114.8,42.5 112.5,42.8 110.6,43.2 C105.8,43.9 92.7,46 88.7,54.9 C84.6,62.2 85.3,71.8 89.3,76.6 C90.8,78.3 93,79.8 95.9,80.4 C96,80.4 96.5,80.5 96.6,80.5 C108.1,82.3 116.4,72.3 116.4,72.3 L115.2,78.5 L115.7,79 L128.6,78.5 L129.1,78 L136.7,40 C136.8,39.1 136.9,38.3 137.1,37.2 C137.2,36.1 137.2,35.2 137.2,34.5 C136.9,29.7 134.7,26.3 131.4,24 Z M118.1,62.2 C118.1,62.2 115.1,67.1 110.5,68.8 C106,70.5 102.8,69.2 101.6,67.5 C100.6,66.2 98.4,61.9 102.5,57.1 C106.5,52.2 120.1,52 120.1,52 L118.1,62.2 Z M87,32.8 L86.4,33.4 L77.5,33.2 L73.4,52.6 C72.8,55 71.6,61.1 71.6,63.1 C71.6,64.9 72.2,66.1 73.2,66.9 C74.2,67.6 75.4,67.9 76.4,67.9 C78.8,67.9 79.7,67.2 81.4,66.6 L81.6,66.8 L79.4,77.9 L78.7,78.6 C75.7,79.2 73.3,79.8 70.2,79.8 C61.9,79.8 55.9,77 55.9,67.4 C55.9,62.9 57.7,54.7 59.1,48.6 L62.4,33.2 L55.5,33.4 L55.1,32.8 L57.2,21.9 L57.8,21.5 L64.9,21.5 L67.7,7.2 L68.3,6.6 C75.4,4.8 77.4,3.9 83.9,1.7 L84.3,2.1 L82.1,11.4 L79.9,21.8 L89,21.6 L89.2,22.1 L87,32.8 Z M53.7,6.4 L51,20.3 L50.4,20.5 C49.3,19 48.7,18.4 47.2,17.2 C43.9,14.6 39.9,13.2 35.9,13.2 C32.7,13.2 30.2,14.2 28.3,15.8 C26.5,17.4 25.5,19.8 25.5,22.4 C25.5,27.3 28.9,29.7 34.8,33.3 L37.1,34.6 C42.1,37.9 49.9,42.9 49.9,54.4 C49.9,67.3 41.6,80.4 21.6,80.4 C16.7,80.4 12,79.5 7.3,77.8 C4.1,76.6 2.7,75.6 0.8,74.1 L0.7,73.2 L3.4,59.7 L4,59.5 C5.2,61.1 6.7,62.3 9,63.8 C13.8,67 18.4,67.3 20.3,67.3 C27.4,67.3 32.9,63.3 32.9,57.1 C32.9,51.5 28.5,48.7 23.9,46 L20.7,44 C15.7,40.7 8.8,36.2 8.8,25.1 C8.8,20.8 10,14.6 13.8,9.6 C18.8,2.9 26.7,0.6 34.6,0.6 C44.8,0.6 50.7,4.3 53.5,6 L53.7,6.4 Z M463,28.9 C463,33.8 459.5,37.4 454.8,37.4 C450.2,37.4 446.6,33.7 446.6,28.9 C446.6,23.9 450,20.2 454.8,20.2 C459.5,20.2 463,24 463,28.9 Z M447.8,28.7 C447.8,32.8 451,36.3 454.9,36.3 C458.8,36.3 462,32.9 462,28.7 C462,26.7 461.3,24.7 459.9,23.3 C458.7,22 456.7,21.1 454.9,21.1 C450.9,21.3 447.8,24.5 447.8,28.7 Z M454.5,24 C455.5,24 456,24 456.6,24.2 C457.6,24.6 458.3,25.5 458.3,26.6 C458.3,27.8 457.6,28.7 456.3,29 L458.3,33.6 L457,33.6 L455.2,29.2 L453.1,29.2 L453.1,33.6 L451.9,33.6 L451.9,24 L454.5,24 Z M454.4,28.3 C455.6,28.3 456.1,28.2 456.5,27.9 C456.9,27.7 457.1,27.2 457.1,26.6 C457.1,25.9 456.7,25.4 456.1,25.1 C455.7,25 455.2,24.9 454.1,24.9 L453.1,24.9 L453.1,28.2 L454.3,28.2 L454.4,28.3 Z" id="Shape-Copy"></path>
            </g>
            <path d="M221.293978,188.565769 C221.293978,193.413629 217.977021,197.751189 212.746434,201.068146 C207.515848,204.385103 199.988906,206.298732 191.696513,206.298732 C183.40412,206.298732 176.13233,204.257528 170.901743,201.068146 C165.671157,197.878764 162.481775,193.413629 162.481775,188.565769 C162.481775,183.717908 165.543582,179.380349 170.901743,176.063391 C176.259905,172.746434 183.531696,170.96038 191.696513,170.96038 C199.861331,170.96038 207.260697,173.001585 212.746434,176.063391 C217.977021,179.252773 221.293978,183.590333 221.293978,188.565769 Z M202.030111,140.087163 C202.030111,135.239303 205.091918,130.901743 210.450079,127.584786 C215.808241,124.267829 223.080032,122.481775 231.244849,122.481775 C239.537242,122.481775 246.809033,124.522979 252.29477,127.584786 C257.525357,130.901743 260.842314,135.239303 260.842314,140.087163 C260.842314,144.935024 257.525357,149.272583 252.29477,152.58954 C246.809033,155.906498 239.537242,157.820127 231.244849,157.820127 C222.952456,157.820127 215.680666,155.778922 210.450079,152.58954 C205.091918,149.272583 202.030111,144.935024 202.030111,140.087163 Z M300.39065,188.565769 C300.39065,193.413629 297.073693,197.751189 291.843106,201.068146 C286.61252,204.385103 279.085578,206.298732 270.793185,206.298732 C262.500792,206.298732 255.229002,204.257528 249.998415,201.068146 C244.767829,197.878764 241.578447,193.413629 241.578447,188.565769 C241.578447,183.717908 244.640254,179.380349 249.998415,176.063391 C255.356577,172.746434 262.628368,170.96038 270.793185,170.96038 C278.958003,170.96038 286.357369,173.001585 291.843106,176.063391 C297.328843,179.252773 300.39065,183.590333 300.39065,188.565769 Z M270.920761,159.478605 C267.221078,159.478605 263.776545,159.733756 260.332013,160.371632 C267.603803,155.141046 272.196513,147.869255 272.196513,139.832013 C272.196513,123.757528 253.953249,111 231.244849,111 C208.664025,111 190.548336,123.757528 190.548336,139.832013 C190.548336,147.74168 195.013471,155.013471 202.412837,160.371632 C198.968304,159.733756 195.396197,159.478605 191.696513,159.478605 C168.988114,159.478605 151,172.236133 151,188.310618 C151,204.385103 168.988114,217.397781 191.568938,217.397781 C210.832805,217.397781 227.034865,207.957211 231.372425,195.327258 C235.709984,208.084786 251.656894,217.397781 270.920761,217.397781 C293.62916,217.397781 312,204.385103 312,188.310618 C312,172.236133 293.501585,159.478605 270.920761,159.478605 Z M198.202853,139.704437 C198.202853,132.687797 203.68859,127.712361 206.750396,125.543582 C213.12916,121.078447 221.804279,118.654517 231.117274,118.654517 C240.430269,118.654517 249.105388,121.206022 255.739303,125.671157 C259.05626,127.967512 264.414422,132.815372 264.414422,139.832013 C264.414422,151.696513 248.977813,161.137084 231.117274,161.137084 C221.804279,161.137084 213.256735,158.585578 206.877971,154.120444 C201.392235,150.038035 198.202853,144.935024 198.202853,139.704437 Z M191.441363,209.743265 C182.128368,209.743265 173.580824,207.191759 167.20206,202.726624 C161.588748,198.644216 158.654517,193.541204 158.654517,188.310618 C158.654517,181.293978 164.140254,176.446117 167.20206,174.149762 C173.580824,169.684628 182.255943,167.133122 191.568938,167.133122 C200.881933,167.133122 209.557052,169.684628 216.190967,174.149762 C219.507924,176.446117 224.866086,181.293978 224.866086,188.310618 C224.73851,200.175119 209.429477,209.743265 191.441363,209.743265 Z M221.166403,168.408875 C224.48336,169.046751 228.055468,169.301902 231.627575,169.301902 C235.327258,169.301902 238.771791,169.046751 242.216323,168.408875 C237.240887,171.980983 233.541204,176.701268 231.755151,181.804279 C229.841521,176.701268 226.141838,172.236133 221.166403,168.408875 Z M270.538035,209.615689 C261.22504,209.615689 252.677496,207.064184 246.298732,202.599049 C240.812995,198.771791 237.751189,193.541204 237.751189,188.310618 C237.751189,181.293978 243.236926,176.446117 246.298732,174.149762 C252.677496,169.684628 261.352615,167.133122 270.66561,167.133122 C279.978605,167.133122 288.653724,169.684628 295.287639,174.149762 C298.604596,176.446117 303.962758,181.293978 303.962758,188.310618 C303.707607,200.047544 288.398574,209.615689 270.538035,209.615689 Z" id="Shape"></path>
        </g>
    </g>
</svg>