<?xml version="1.0" encoding="UTF-8"?>
<svg width="517px" height="106px" viewBox="0 0 517 106" version="1.1" xmlns="http://www.w3.org/2000/svg" xmlns:xlink="http://www.w3.org/1999/xlink">
    <!-- Generator: Sketch 48.2 (47327) - http://www.bohemiancoding.com/sketch -->
    <title>travelers-logo</title>
    <desc>Created with Sketch.</desc>
    <defs></defs>
    <g id="Page-1" stroke="none" stroke-width="1" fill="none" fill-rule="evenodd">
        <g id="travelers-logo" fill-rule="nonzero">
            <path d="M398.845,39.667 L398.647,39.667 C398.444,39.667 398.279,39.502 398.279,39.299 C398.266,39.243 398.266,39.185 398.279,39.129 C412.582,6.495 450.632,-8.366 483.265,5.937 C498.104,12.441 509.953,24.29 516.457,39.129 C516.535,39.317 516.446,39.532 516.259,39.61 C516.214,39.629 516.165,39.638 516.116,39.638 L515.946,39.638 C510.412,36.639 504.191,35.136 497.898,35.275 C490.794,35.034 483.792,37.015 477.867,40.942 C477.793,40.966 477.714,40.966 477.639,40.942 L477.412,40.942 C465.137,33.35 449.624,33.35 437.349,40.942 C437.276,40.966 437.197,40.966 437.122,40.942 L436.924,40.942 C430.999,37.016 423.996,35.035 416.893,35.275 C410.607,35.152 404.397,36.666 398.872,39.667 L398.845,39.667 Z" id="Shape" fill="#F50002"></path>
            <path d="M460.753,40.092 C460.754,39.93 460.631,39.795 460.47,39.78 C459.417,39.653 458.358,39.587 457.297,39.582 C456.401,39.537 455.502,39.537 454.606,39.582 C454.445,39.597 454.322,39.732 454.322,39.894 L454.322,92.679 C454.321,95.683 451.885,98.117 448.881,98.117 C446.577,98.116 444.524,96.664 443.754,94.491 C443.079,92.84 441.193,92.049 439.542,92.723 C438.094,93.315 437.278,94.86 437.606,96.389 C439.606,102.633 446.29,106.073 452.534,104.072 C457.48,102.487 460.821,97.872 460.782,92.678 L460.753,40.092 Z" id="Shape" fill="#F50002"></path>
            <path d="M90.125,104.323 L79.33,104.323 L72.36,81.656 L63.435,81.656 L60.942,104.323 L50.203,104.323 L56.55,46.665 L77.658,46.665 C90.181,46.665 96.188,49.668 94.658,64.316 C93.553,74.318 89.672,78.341 82.758,80.296 L90.125,104.323 Z M74.372,72.562 C79.415,72.562 82.872,72.364 83.779,64.062 C84.686,55.76 80.662,55.958 75.959,55.958 L66.269,55.958 L64.427,72.703 L74.372,72.562 Z" id="Shape" fill="#000000"></path>
            <path d="M373.175,104.323 L362.295,104.323 L355.325,81.656 L346.485,81.656 L343.991,104.323 L333.281,104.323 L339.628,46.665 L360.765,46.665 C373.288,46.665 379.267,49.668 377.765,64.316 C376.689,74.318 372.779,78.341 365.866,80.296 L373.175,104.323 Z M357.167,72.562 C362.21,72.562 365.667,72.364 366.602,64.062 C367.538,55.76 363.769,55.958 358.782,55.958 L349.262,55.958 L347.42,72.703 L357.167,72.562 Z" id="Shape" fill="#000000"></path>
            <polygon id="Shape" fill="#000000" points="147.5 46.665 158.833 46.665 166.681 88.797 183.256 46.665 194.221 46.665 170.393 104.635 159.286 104.635"></polygon>
            <polygon id="Shape" fill="#000000" points="204.167 46.665 238.167 46.665 237.119 56.269 214.113 56.269 212.668 69.983 231.34 69.983 230.263 79.73 211.563 79.73 209.835 94.69 233.606 94.69 232.501 104.323 197.877 104.323"></polygon>
            <polygon id="Shape" fill="#000000" points="293.672 46.665 327.672 46.665 326.623 56.269 303.588 56.269 302.059 69.983 320.731 69.983 319.654 79.73 300.982 79.73 299.31 94.69 323.167 94.69 322.118 104.323 287.325 104.323"></polygon>
            <path d="M382.071,103.304 L383.573,93.868 C388.888,94.837 394.267,95.414 399.667,95.597 C406.92,95.597 408.96,94.35 409.583,88.514 C410.179,83.159 409.3,82.479 401.083,79.872 C388.163,75.707 385.245,73.582 386.548,61.597 C387.823,50.094 393.774,46.014 406.863,46.014 C412.202,45.984 417.53,46.516 422.758,47.601 L421.54,56.979 C416.307,56.163 411.025,55.69 405.729,55.562 C399.893,55.562 397.938,57.064 397.4,61.71 C396.804,67.15 397.825,67.689 405.672,70.21 C418.054,74.318 421.936,76.443 420.604,88.485 C419.216,101.093 413.351,105.031 398.363,105.031 C392.888,105.01 387.43,104.431 382.071,103.304 Z" id="Shape" fill="#000000"></path>
            <path d="M107.182,104.323 L96.217,104.323 L121.009,46.353 L131.549,46.353 L142.882,104.323 L131.549,104.323 L129.764,94.719 L111.178,94.719 L107.182,104.323 Z M124.408,61.455 L114.916,85.68 L128.233,85.68 L124.408,61.455 Z" id="Shape" fill="#000000"></path>
            <path d="M281.177,94.69 L255.677,94.69 L260.975,46.665 L250.038,46.665 L243.833,104.323 L271.118,104.323 C277.153,104.323 279.816,100.781 281.177,94.69 Z" id="Shape" fill="#000000"></path>
            <path d="M1.215,46.665 L0.167,56.269 L18.102,56.269 L12.804,104.436 L23.854,104.436 L29.067,56.326 L38.105,56.326 C44.253,56.326 46.917,52.785 48.249,46.665 L1.215,46.665 Z" id="Shape" fill="#000000"></path>
        </g>
    </g>
</svg>